<?xml version="1.0" encoding="UTF-8"?>
<svg version="1.1" xmlns="http://www.w3.org/2000/svg" width="732" height="169">
<path d="M0 0 C1.23298828 -0.01224609 2.46597656 -0.02449219 3.73632812 -0.03710938 C5.52780273 -0.04000977 5.52780273 -0.04000977 7.35546875 -0.04296875 C8.44883545 -0.04707764 9.54220215 -0.05118652 10.66870117 -0.05541992 C14.14122665 0.21290056 16.6595213 0.68763987 19.8125 2.1875 C21.75952148 4.71850586 21.75952148 4.71850586 23.43359375 7.90234375 C24.05943359 9.06443359 24.68527344 10.22652344 25.33007812 11.42382812 C25.97093308 12.65709468 26.6109036 13.89082122 27.25 15.125 C28.51250272 17.51288208 29.78513958 19.89528815 31.05859375 22.27734375 C31.67814941 23.43999756 32.29770508 24.60265137 32.93603516 25.80053711 C35.21417941 29.91251931 37.69569989 33.85526558 40.27856445 37.78125 C41.83105143 40.2166012 43.2122541 42.69782672 44.5625 45.25 C47.39639818 50.55487206 50.48845235 55.68312656 53.625 60.8125 C54.11774414 61.61953369 54.61048828 62.42656738 55.11816406 63.25805664 C57.20613893 66.91911047 57.20613893 66.91911047 59.8125 70.1875 C61.46693073 62.6110851 63.12093543 55.03457727 64.7746582 47.45800781 C65.33608589 44.88604681 65.89760745 42.31410629 66.45922852 39.7421875 C67.2712494 36.02349275 68.08292112 32.30472192 68.89453125 28.5859375 C69.26503349 26.8897377 69.26503349 26.8897377 69.64302063 25.15927124 C69.88304306 24.05918732 70.12306549 22.95910339 70.37036133 21.82568359 C70.60534332 20.75131042 70.84032532 19.67693726 71.08242798 18.57000732 C71.60687578 16.14018058 72.12019236 13.70794132 72.62631226 11.27423096 C73.02531235 9.36272247 73.02531235 9.36272247 73.43237305 7.41259766 C73.67287888 6.24572418 73.9133847 5.07885071 74.16117859 3.87661743 C74.8125 1.1875 74.8125 1.1875 75.8125 0.1875 C77.95808827 0.09974395 80.10654421 0.08054781 82.25390625 0.08984375 C83.55908203 0.09306641 84.86425781 0.09628906 86.20898438 0.09960938 C87.5976569 0.10796599 88.98632877 0.11643095 90.375 0.125 C91.76757656 0.13001334 93.16015481 0.13457653 94.55273438 0.13867188 C97.9726987 0.15050566 101.39257844 0.1669912 104.8125 0.1875 C106.12307274 2.80864549 105.61794062 3.86954322 104.984375 6.71484375 C104.6584436 8.20612793 104.6584436 8.20612793 104.32592773 9.72753906 C104.07399658 10.84870117 103.82206543 11.96986328 103.5625 13.125 C103.15596486 14.97750814 102.74946974 16.83002518 102.34373474 18.68270874 C101.86989659 20.84276948 101.39317548 23.00218397 100.91650391 25.16162109 C98.90431274 34.29937155 96.94248136 43.44814327 94.97106934 52.59475708 C94.2689061 55.84985483 93.56486569 59.10454121 92.86035156 62.35913086 C90.35497157 73.94555056 87.88743567 85.5387339 85.48936462 97.14788818 C84.93473153 99.82868548 84.37518323 102.50838174 83.8125 105.1875 C83.63057098 106.06112183 83.44864197 106.93474365 83.26119995 107.83483887 C81.92919063 114.07080937 81.92919063 114.07080937 80.8125 115.1875 C76.63100329 115.55022781 72.44406914 115.62987541 68.24926758 115.70239258 C66.84158114 115.73394054 65.43415683 115.781603 64.02758789 115.84594727 C52.48974691 116.36650247 52.48974691 116.36650247 48.71923828 113.71606445 C47.10003615 111.62518627 45.96721117 109.56501882 44.8125 107.1875 C43.86388985 105.59235849 42.91060933 103.99998687 41.953125 102.41015625 C40.98440488 100.6930153 40.02103925 98.97284481 39.0625 97.25 C38.01134002 95.38489597 36.95924328 93.5203196 35.90625 91.65625 C35.38675781 90.73457031 34.86726563 89.81289062 34.33203125 88.86328125 C31.72030135 84.2642196 29.023545 79.71618155 26.32788086 75.16601562 C24.40791836 71.9188203 22.50672045 68.66459154 20.66015625 65.375 C20.3156543 64.76261475 19.97115234 64.15022949 19.61621094 63.51928711 C18.70439699 61.89172167 17.7991477 60.26048309 16.89453125 58.62890625 C14.1778937 53.94759642 10.95484215 49.58831642 7.8125 45.1875 C6.97558075 49.04089605 6.14336643 52.89529446 5.3125 56.75 C5.04985352 57.96679443 4.78720703 59.18358887 4.51660156 60.43725586 C2.85779541 68.15589053 1.25842824 75.8848371 -0.296875 83.625 C-0.65558241 85.40291675 -1.01430633 87.18083017 -1.37304688 88.95874023 C-1.90585716 91.60087495 -2.43619314 94.24339344 -2.95922852 96.88748169 C-3.45141521 99.37540318 -3.95157403 101.86160834 -4.453125 104.34765625 C-4.59876892 105.09648071 -4.74441284 105.84530518 -4.89447021 106.61682129 C-5.58956031 110.02756367 -6.23031046 112.25171568 -8.1875 115.1875 C-11.16845703 115.52807617 -11.16845703 115.52807617 -14.9453125 115.48046875 C-15.60836395 115.47622391 -16.27141541 115.47197906 -16.95455933 115.46760559 C-19.07428441 115.45079971 -21.19306188 115.41314701 -23.3125 115.375 C-24.74868419 115.35995549 -26.18488328 115.34626668 -27.62109375 115.33398438 C-31.14353764 115.3008909 -34.66542636 115.2490968 -38.1875 115.1875 C-36.62016011 104.82062933 -34.41219535 94.61506176 -32.1875 84.375 C-31.58933673 81.60691065 -30.99220312 78.83860049 -30.39517212 76.07026672 C-29.97748282 74.13358705 -29.55948916 72.196973 -29.14120483 70.26042175 C-27.57177993 62.98918065 -26.02003909 55.71429043 -24.4765625 48.4375 C-24.25329285 47.38524734 -24.03002319 46.33299469 -23.79998779 45.24885559 C-22.92396619 41.11906509 -22.04826402 36.98920822 -21.17431641 32.85897827 C-14.22142591 0.00731931 -14.22142591 0.00731931 0 0 Z " fill="#A41537" transform="translate(430.1875,29.8125)"/>
<path d="M0 0 C1.12951332 -0.0098568 1.12951332 -0.0098568 2.28184509 -0.01991272 C4.78832086 -0.03971053 7.29473621 -0.05132921 9.80126953 -0.0612793 C11.08665808 -0.06739259 11.08665808 -0.06739259 12.39801407 -0.07362938 C16.9429119 -0.09452833 21.48777929 -0.10880737 26.03271484 -0.11816406 C30.70752301 -0.12917217 35.38184772 -0.16349536 40.05648613 -0.20333576 C43.66499654 -0.22962409 47.27339462 -0.23786719 50.88199234 -0.24144554 C52.60340729 -0.24628847 54.324818 -0.25783629 56.04613876 -0.27648354 C67.81945802 -0.39598566 79.26234023 -0.18899212 88.37548828 8.3996582 C94.61156379 16.13103247 95.57375273 25.61861827 94.80908203 35.17700195 C92.49362121 47.71675664 87.21683703 58.24845699 77.32470703 66.45825195 C66.71685016 73.70585603 54.54757999 75.51130685 41.98876953 75.37231445 C41.00409698 75.36948456 40.01942444 75.36665466 39.00491333 75.36373901 C35.89783943 75.3526539 32.79106699 75.32757186 29.68408203 75.30200195 C27.5616904 75.29195705 25.43929419 75.28283386 23.31689453 75.2746582 C18.14750972 75.25275294 12.97834677 75.21830524 7.80908203 75.17700195 C7.7241172 76.02706566 7.7241172 76.02706566 7.63743591 76.89430237 C6.92074723 83.73755941 5.67752016 90.39919843 4.2800293 97.13623047 C3.86772123 99.13320134 3.46808862 101.13246086 3.06884766 103.13208008 C2.80910156 104.39342773 2.54935547 105.65477539 2.28173828 106.9543457 C1.92994507 108.67512329 1.92994507 108.67512329 1.57104492 110.43066406 C0.80908203 113.17700195 0.80908203 113.17700195 -1.19091797 115.17700195 C-4.171875 115.40405273 -4.171875 115.40405273 -7.94873047 115.37231445 C-8.61178192 115.36948456 -9.27483337 115.36665466 -9.95797729 115.36373901 C-12.0774738 115.3525363 -14.19654901 115.32743246 -16.31591797 115.30200195 C-17.75210979 115.29197223 -19.18830822 115.28284636 -20.62451172 115.2746582 C-24.14678425 115.25259696 -27.66881 115.21806689 -31.19091797 115.17700195 C-30.57168386 108.54715848 -29.42515457 102.22536587 -27.94091797 95.73950195 C-25.27162312 83.79470322 -22.94627774 71.7940503 -20.68408203 59.76635742 C-20.52133789 58.91187012 -20.35859375 58.05738281 -20.19091797 57.17700195 C-20.0668457 56.30317871 -19.94277344 55.42935547 -19.81494141 54.52905273 C-19.0711942 51.72574265 -18.51679493 50.89422364 -16.19091797 49.17700195 C-13.28898621 48.79173279 -13.28898621 48.79173279 -9.70336914 48.77636719 C-9.04932602 48.76938812 -8.3952829 48.76240906 -7.72142029 48.75521851 C-5.55877839 48.73522102 -3.39661294 48.73574184 -1.23388672 48.7355957 C0.27204168 48.7238225 1.77795841 48.71045841 3.28385925 48.6955719 C7.25175068 48.65935092 11.21953881 48.63917884 15.18756104 48.62402344 C21.52794004 48.59922093 27.86809038 48.55937246 34.20825768 48.50212288 C36.41841906 48.48585475 38.62836351 48.48202108 40.83857727 48.47911072 C42.2035051 48.46932732 43.5684296 48.45906289 44.93334961 48.44824219 C46.11899002 48.44396713 47.30463043 48.43969208 48.52619934 48.43528748 C52.52862225 48.12039109 56.48984645 47.68418342 59.23486328 44.5480957 C61.57742176 39.43987347 62.54923114 34.78978124 62.80908203 29.17700195 C62.14908203 29.17700195 61.48908203 29.17700195 60.80908203 29.17700195 C60.80908203 28.51700195 60.80908203 27.85700195 60.80908203 27.17700195 C36.71908203 26.84700195 12.62908203 26.51700195 -12.19091797 26.17700195 C-11.05840641 13.71937483 -11.05840641 13.71937483 -9.69091797 7.55200195 C-9.43310547 6.36348633 -9.17529297 5.1749707 -8.90966797 3.95043945 C-7.58652469 -1.15516775 -4.62255583 0.01731549 0 0 Z " fill="#0D6D81" transform="translate(56.19091796875,29.822998046875)"/>
<path d="M0 0 C0.65593643 -0.00191345 1.31187286 -0.0038269 1.98768616 -0.00579834 C3.37550235 -0.00715968 4.7633313 -0.00346674 6.15112305 0.00488281 C8.27356686 0.01556666 10.395161 0.0049954 12.51757812 -0.0078125 C13.86588728 -0.00649056 15.21419591 -0.00392745 16.5625 0 C17.790896 0.00225586 19.01929199 0.00451172 20.28491211 0.00683594 C23.34765625 0.265625 23.34765625 0.265625 26.34765625 2.265625 C27.13465881 4.38745117 27.13465881 4.38745117 27.72290039 7.05859375 C27.9510141 8.06551773 28.17912781 9.07244171 28.41415405 10.10987854 C28.76988998 11.76478554 28.76988998 11.76478554 29.1328125 13.453125 C29.39027252 14.6027623 29.64773254 15.7523996 29.91299438 16.93687439 C30.75612252 20.71082311 31.58292973 24.48816208 32.41015625 28.265625 C33.42362597 32.82045207 34.44292347 37.37396847 35.46245003 41.92744255 C35.90371011 43.90064126 36.3434172 45.8741809 36.78282166 47.84779358 C39.61094539 60.53473966 42.61463712 73.17722009 45.66506958 85.81225586 C51.34765625 109.35492812 51.34765625 109.35492812 51.34765625 115.265625 C40.45765625 115.265625 29.56765625 115.265625 18.34765625 115.265625 C13.84639283 97.2605713 13.84639283 97.2605713 12.6015625 90.9609375 C12.46520386 90.27621872 12.32884521 89.59149994 12.18835449 88.8860321 C11.75840213 86.72164348 11.33409741 84.55619818 10.91015625 82.390625 C10.60956844 80.87063248 10.30870175 79.35069508 10.00756836 77.83081055 C7.40197766 64.65262009 4.8548006 51.46288097 2.34765625 38.265625 C-1.74706237 41.86168936 -4.21807175 46.19366958 -6.96484375 50.828125 C-11.08620787 57.71287859 -15.32210888 64.51012409 -19.65234375 71.265625 C-27.40720597 83.39964981 -35.11841151 95.55505299 -42.65283203 107.82763672 C-43.16442871 108.65924316 -43.67602539 109.49084961 -44.203125 110.34765625 C-44.87855347 111.44944214 -44.87855347 111.44944214 -45.56762695 112.57348633 C-46.65234375 114.265625 -46.65234375 114.265625 -47.65234375 115.265625 C-50.17328451 115.35410243 -52.66665268 115.38089801 -55.1875 115.36328125 C-56.31737587 115.36115883 -56.31737587 115.36115883 -57.47007751 115.35899353 C-59.88503935 115.35337876 -62.29990976 115.34082383 -64.71484375 115.328125 C-66.34830596 115.3231119 -67.98176961 115.31854866 -69.61523438 115.31445312 C-73.6276396 115.30340454 -77.63997616 115.28613006 -81.65234375 115.265625 C-80.18289953 111.15412102 -78.1650159 107.77249828 -75.7578125 104.13671875 C-75.18237953 103.26321777 -75.18237953 103.26321777 -74.59532166 102.37207031 C-73.34753147 100.47972158 -72.09366584 98.59148124 -70.83984375 96.703125 C-69.97133775 95.38778428 -69.10334025 94.07210767 -68.23583984 92.75610352 C-66.50660796 90.13324133 -64.77564811 87.51153367 -63.04345703 84.890625 C-59.93090039 80.17693364 -56.85045316 75.44260483 -53.77734375 70.703125 C-53.26300781 69.91123779 -52.74867188 69.11935059 -52.21875 68.3034668 C-49.65247827 64.35188056 -47.09046345 60.3975668 -44.53125 56.44140625 C-36.61944423 44.22302069 -28.57165616 32.0990855 -20.47802734 20.00048828 C-18.80734107 17.49781008 -17.14376946 14.99064312 -15.484375 12.48046875 C-15.01990967 11.77897705 -14.55544434 11.07748535 -14.0769043 10.35473633 C-13.23932085 9.08884137 -12.40341545 7.82183372 -11.56958008 6.5534668 C-7.93627217 1.07156288 -6.6589258 0.01223987 0 0 Z " fill="#533E5C" transform="translate(330.65234375,29.734375)"/>
<path d="M0 0 C36.3 0 72.6 0 110 0 C111.04487728 3.13463185 110.96994543 4.38136092 110.4765625 7.5625 C110.3425 8.44164062 110.2084375 9.32078125 110.0703125 10.2265625 C109.92335938 11.14179687 109.77640625 12.05703125 109.625 13 C109.48578125 13.91523437 109.3465625 14.83046875 109.203125 15.7734375 C108.6541516 19.30551167 108.13266908 22.60199276 107 26 C93.8 26.33 80.6 26.66 67 27 C65.1582789 36.28703167 65.1582789 36.28703167 63.32104492 45.57495117 C61.69236398 53.75280768 59.91494345 61.88402904 58 70 C57.28287983 73.10221528 56.57640067 76.20669783 55.875 79.3125 C55.70613281 80.04533203 55.53726563 80.77816406 55.36328125 81.53320312 C54.55190348 85.13968149 53.87387041 88.69828217 53.44140625 92.37109375 C53 96 53 96 52.0625 98.75 C50.43832378 103.71806845 49.78456662 108.8418918 49 114 C45.60985184 115.13004939 43.00618687 115.12941627 39.43359375 115.1328125 C38.14388672 115.13410156 36.85417969 115.13539063 35.52539062 115.13671875 C34.51955933 115.13357666 34.51955933 115.13357666 33.4934082 115.13037109 C31.4414941 115.12501043 29.38979801 115.13032881 27.33789062 115.13671875 C25.40526367 115.13478516 25.40526367 115.13478516 23.43359375 115.1328125 C22.24822021 115.13168457 21.06284668 115.13055664 19.84155273 115.12939453 C17 115 17 115 15 114 C15.27714844 112.92621094 15.55429687 111.85242188 15.83984375 110.74609375 C16.20592096 109.30994471 16.57179558 107.87374401 16.9375 106.4375 C17.11990234 105.73302734 17.30230469 105.02855469 17.49023438 104.30273438 C18.35601722 100.88682751 19.10980755 97.53157644 19.56640625 94.03515625 C20 91 20 91 21 90 C21.41572808 88.29485796 21.77970999 86.57703674 22.12109375 84.85546875 C22.44110352 83.24961914 22.44110352 83.24961914 22.76757812 81.61132812 C22.98865234 80.48146484 23.20972656 79.35160156 23.4375 78.1875 C23.65470703 77.10017578 23.87191406 76.01285156 24.09570312 74.89257812 C25.17118769 69.457021 26.16964935 64.02386444 27.03515625 58.55078125 C27.69057268 54.51992052 28.60222538 50.84667575 30 47 C30.57599028 44.67490163 31.11678958 42.34084801 31.625 40 C32.01558594 38.2365625 32.01558594 38.2365625 32.4140625 36.4375 C32.96565408 33.20149605 33.04301505 30.27143761 33 27 C31.37203491 26.96241577 31.37203491 26.96241577 29.71118164 26.92407227 C25.698684 26.83016245 21.68636618 26.72990233 17.67407227 26.62768555 C15.93485712 26.58427427 14.19559765 26.54260388 12.45629883 26.50268555 C9.96161512 26.44513232 7.4671559 26.3813958 4.97265625 26.31640625 C4.19036148 26.29969376 3.40806671 26.28298126 2.60206604 26.26576233 C-2.88612829 26.11387171 -2.88612829 26.11387171 -4 25 C-3.40324195 16.49619774 -1.58305624 8.4429666 0 0 Z " fill="#F08305" transform="translate(606,30)"/>
<path d="M0 0 C1.25159912 0.00523682 2.50319824 0.01047363 3.79272461 0.01586914 C4.78942421 0.01799156 4.78942421 0.01799156 5.80625916 0.02015686 C7.93590735 0.02577021 10.06545175 0.03832485 12.19506836 0.05102539 C13.63582205 0.05603868 15.07657739 0.06060188 16.51733398 0.06469727 C20.05577938 0.07574394 23.59416375 0.09301747 27.13256836 0.11352539 C26.66238556 9.38417777 25.29394458 18.17826387 23.29663086 27.23461914 C23.01303282 28.54997361 22.73020277 29.86549386 22.4480896 31.1811676 C21.71042776 34.61158342 20.96263095 38.03970763 20.21246338 41.46740723 C19.45832607 44.92168597 18.71378994 48.37803089 17.96850586 51.83422852 C16.86775758 56.93424951 15.76176448 62.0330872 14.65063477 67.13085938 C13.13070999 74.12207335 11.6316497 81.11781247 10.13256836 88.11352539 C30.92256836 88.44352539 51.71256836 88.77352539 73.13256836 89.11352539 C74.50971046 91.86780958 73.82944869 93.3157525 73.17163086 96.30493164 C72.94733398 97.33166992 72.72303711 98.3584082 72.49194336 99.41625977 C72.24959961 100.49198242 72.00725586 101.56770508 71.75756836 102.67602539 C71.52295898 103.75561523 71.28834961 104.83520508 71.04663086 105.94750977 C69.27045047 113.97564328 69.27045047 113.97564328 68.13256836 115.11352539 C65.2875725 115.2140803 62.46681846 115.2496807 59.62133789 115.24291992 C58.28235443 115.2455484 58.28235443 115.2455484 56.9163208 115.24822998 C53.94932136 115.25265079 50.98238097 115.24970921 48.01538086 115.24633789 C45.96133411 115.24701098 43.90728744 115.24798105 41.85324097 115.24923706 C37.54058069 115.25071444 33.22794108 115.24855863 28.9152832 115.24389648 C23.38119926 115.23820633 17.84716389 115.24147343 12.31308174 115.24746895 C8.06838616 115.25107958 3.82370212 115.24993353 -0.4209938 115.24734116 C-2.46158987 115.24667291 -4.50218698 115.24749676 -6.54278183 115.24982071 C-9.39435354 115.25235464 -12.24584629 115.24849577 -15.09741211 115.24291992 C-16.36927872 115.24595627 -16.36927872 115.24595627 -17.6668396 115.24905396 C-20.98786623 115.23699816 -23.69457511 115.17114423 -26.86743164 114.11352539 C-25.59913645 106.19045886 -24.1530163 98.32680531 -22.51196289 90.47290039 C-22.2894133 89.39930771 -22.06686371 88.32571503 -21.83757019 87.21958923 C-21.12090942 83.76703164 -20.40057953 80.31525276 -19.67993164 76.86352539 C-19.18315904 74.4752662 -18.68641441 72.08700119 -18.18969727 69.69873047 C-15.2343033 55.51591987 -12.23114979 41.34497091 -9.06201172 27.20825195 C-7.50557619 20.22763108 -6.10518318 13.23711894 -4.86914062 6.19328308 C-3.78167814 0.14972161 -3.78167814 0.14972161 0 0 Z " fill="#0F5888" transform="translate(169.867431640625,29.886474609375)"/>
<path d="M0 0 C0.96272226 8.55686678 -1.1118261 16.97969958 -2.8125 25.3125 C-3.07699323 26.65022849 -3.34066921 27.98811883 -3.60351562 29.32617188 C-5.75087063 40.17168424 -8.15718925 50.94076958 -11 61.625 C-12.7508694 68.40199283 -13.90078587 75.20044802 -14.92138672 82.12109375 C-15.78377891 87.89403464 -16.98314035 93.51765304 -18.37890625 99.1875 C-18.96620888 101.84698361 -19.314984 104.41535112 -19.5625 107.125 C-20 111 -20 111 -22 114 C-27.33724857 115.57717288 -32.98486522 115.18405734 -38.5 115.1875 C-39.53253906 115.19974609 -40.56507813 115.21199219 -41.62890625 115.22460938 C-42.62792969 115.22654297 -43.62695312 115.22847656 -44.65625 115.23046875 C-45.56181641 115.23457764 -46.46738281 115.23868652 -47.40039062 115.24291992 C-50.24755992 114.97686682 -52.40827512 114.17930493 -55 113 C-55.196443 108.37657365 -54.52255226 104.62674961 -53.25 100.1875 C-52.87946795 98.8573381 -52.51105768 97.52658372 -52.14453125 96.1953125 C-51.95455566 95.50727539 -51.76458008 94.81923828 -51.56884766 94.11035156 C-49.04013499 84.72915315 -46.98947021 75.24969799 -45.27832031 65.68774414 C-44.10030366 59.24919466 -42.63970826 52.88140484 -41.1875 46.5 C-38.4428448 34.41970631 -36.10971373 22.28576907 -33.91674805 10.09570312 C-33.73480896 9.09544601 -33.73480896 9.09544601 -33.54919434 8.07498169 C-33.21914236 6.2581129 -32.89396017 4.4403614 -32.5690918 2.62255859 C-32 0 -32 0 -31 -1 C-27.6818475 -1.38660573 -24.33613021 -1.47151092 -21 -1.625 C-19.61748047 -1.70234375 -19.61748047 -1.70234375 -18.20703125 -1.78125 C-2.53290082 -2.53290082 -2.53290082 -2.53290082 0 0 Z " fill="#F6AA05" transform="translate(592,31)"/>
<path d="M0 0 C35.31 0 70.62 0 107 0 C107 8.7240255 106.89126272 14.22112649 104 22 C103.34 21.67 102.68 21.34 102 21 C102.495 19.515 102.495 19.515 103 18 C103.09182942 16.46050671 103.13002352 14.91722145 103.125 13.375 C103.12757813 12.57835937 103.13015625 11.78171875 103.1328125 10.9609375 C103.21570074 8.99646464 103.21570074 8.99646464 102 8 C102.28730055 5.66055264 102.61936779 3.3260857 103 1 C101.7868663 1.24496971 101.7868663 1.24496971 100.54922485 1.49488831 C96.39466816 2.08614844 92.4009464 2.1168706 88.21240234 2.08178711 C87.34988358 2.07872055 86.48736481 2.07565399 85.59870911 2.07249451 C83.73427771 2.06536503 81.86985382 2.05598855 80.00544357 2.04459953 C77.05502575 2.02716105 74.10466241 2.01689545 71.15420532 2.00868225 C62.76844129 1.98426524 54.38275115 1.94856766 45.99707031 1.90405273 C40.86141059 1.87729015 35.72579283 1.86023582 30.59007645 1.84918404 C28.63402372 1.84297318 26.67797926 1.83296654 24.72196579 1.81910515 C21.99085887 1.79991505 19.25997379 1.79299688 16.52880859 1.78881836 C15.72040024 1.78005676 14.91199188 1.77129517 14.0790863 1.76226807 C9.91082542 1.76955814 7.82606988 2.08696506 4 4 C7.3 4.33 10.6 4.66 14 5 C13.67 5.66 13.34 6.32 13 7 C9.04 7 5.08 7 1 7 C0.5359375 8.918125 0.5359375 8.918125 0.0625 10.875 C-0.47605244 13.10101675 -0.9737 14.94739999 -2 17 C-1.34 17 -0.68 17 0 17 C0 18.32 0 19.64 0 21 C-0.66 21 -1.32 21 -2 21 C-3.60725635 17.78548731 -3.05748185 14.56387464 -3 11 C-2.34 11 -1.68 11 -1 11 C-1.020625 9.741875 -1.04125 8.48375 -1.0625 7.1875 C-1.10886083 4.35948913 -0.91692961 2.75078884 0 0 Z " fill="#E17C04" transform="translate(608,32)"/>
<path d="M0 0 C36.3 0 72.6 0 110 0 C111.231394 3.69418201 110.64432764 6.2056261 110 10 C109.67 10 109.34 10 109 10 C109 7.36 109 4.72 109 2 C73.69 2 38.38 2 2 2 C1.67 5.63 1.34 9.26 1 13 C0.34 13 -0.32 13 -1 13 C-0.67 16.3 -0.34 19.6 0 23 C3.48891931 24.1629731 6.35936251 24.19393666 10.0390625 24.28125 C10.72052338 24.29965942 11.40198425 24.31806885 12.10409546 24.33703613 C15.01748086 24.41566686 17.93108981 24.48366731 20.84472656 24.55224609 C22.97212601 24.60384523 25.09931925 24.66112146 27.2265625 24.71875 C29.13816162 24.76418945 29.13816162 24.76418945 31.08837891 24.81054688 C34 25 34 25 35 26 C35.04092937 28.33297433 35.04241723 30.66705225 35 33 C34.67 33 34.34 33 34 33 C33.505 30.03 33.505 30.03 33 27 C31.37203491 26.96241577 31.37203491 26.96241577 29.71118164 26.92407227 C25.698684 26.83016245 21.68636618 26.72990233 17.67407227 26.62768555 C15.93485712 26.58427427 14.19559765 26.54260388 12.45629883 26.50268555 C9.96161512 26.44513232 7.4671559 26.3813958 4.97265625 26.31640625 C4.19036148 26.29969376 3.40806671 26.28298126 2.60206604 26.26576233 C-2.88612829 26.11387171 -2.88612829 26.11387171 -4 25 C-3.40324195 16.49619774 -1.58305624 8.4429666 0 0 Z " fill="#E1AA6B" transform="translate(606,30)"/>
<path d="M0 0 C0.96272226 8.55686678 -1.1118261 16.97969958 -2.8125 25.3125 C-3.07699323 26.65022849 -3.34066921 27.98811883 -3.60351562 29.32617188 C-8.32570971 53.1868509 -8.32570971 53.1868509 -11 58 C-11.83109542 38.37691375 -11.83109542 38.37691375 -8.01147461 31.12255859 C-6.81649224 28.61491275 -6.51064263 26.47457859 -6.18359375 23.71875 C-6.05919922 22.71199219 -5.93480469 21.70523438 -5.80664062 20.66796875 C-5.68482422 19.62253906 -5.56300781 18.57710937 -5.4375 17.5 C-5.18825999 15.42683439 -4.93703633 13.35390605 -4.68359375 11.28125 C-4.57587646 10.36408203 -4.46815918 9.44691406 -4.35717773 8.50195312 C-4 6 -4 6 -3 2 C-11.58 2 -20.16 2 -29 2 C-30.35575854 4.71151708 -30.18856493 7.03494338 -30.3125 10.0625 C-30.71600818 16.11512272 -32.06630495 20.71934891 -35 26 C-35.33 26 -35.66 26 -36 26 C-35.56334011 19.73618919 -34.6443676 13.60509709 -33.5 7.4375 C-33.36940186 6.72271484 -33.23880371 6.00792969 -33.10424805 5.27148438 C-32.12463421 0.12463421 -32.12463421 0.12463421 -31 -1 C-27.6818475 -1.38660573 -24.33613021 -1.47151092 -21 -1.625 C-20.07832031 -1.6765625 -19.15664063 -1.728125 -18.20703125 -1.78125 C-2.53290082 -2.53290082 -2.53290082 -2.53290082 0 0 Z " fill="#D9AB44" transform="translate(592,31)"/>
<path d="M0 0 C0.66 0 1.32 0 2 0 C2 1.32 2 2.64 2 4 C31.04 4 60.08 4 90 4 C90 3.01 90 2.02 90 1 C90.99 1 91.98 1 93 1 C93 2.98 93 4.96 93 7 C81.05650588 7.02314458 69.11301708 7.04092592 57.16950512 7.05181217 C51.6239817 7.05703635 46.07847359 7.06412561 40.53295898 7.07543945 C35.18376324 7.08628478 29.83458225 7.09228035 24.48537636 7.09487724 C22.4419869 7.09672851 20.39859827 7.10034344 18.35521507 7.10573006 C15.49875502 7.11296228 12.64235637 7.11399001 9.78588867 7.11352539 C8.5116655 7.1189183 8.5116655 7.1189183 7.21170044 7.12442017 C3.88528371 7.11854436 1.1782294 7.0594098 -2 6 C-1.49396008 3.83125748 -1.00016187 2.00032373 0 0 Z " fill="#6986A5" transform="translate(145,138)"/>
<path d="M0 0 C1.25159912 0.00523682 2.50319824 0.01047363 3.79272461 0.01586914 C4.78942421 0.01799156 4.78942421 0.01799156 5.80625916 0.02015686 C7.93590735 0.02577021 10.06545175 0.03832485 12.19506836 0.05102539 C13.63582205 0.05603868 15.07657739 0.06060188 16.51733398 0.06469727 C20.05577938 0.07574394 23.59416375 0.09301747 27.13256836 0.11352539 C27.13256836 2.42352539 27.13256836 4.73352539 27.13256836 7.11352539 C26.80256836 7.11352539 26.47256836 7.11352539 26.13256836 7.11352539 C26.13256836 5.46352539 26.13256836 3.81352539 26.13256836 2.11352539 C24.81256836 2.11352539 23.49256836 2.11352539 22.13256836 2.11352539 C22.46256836 4.09352539 22.79256836 6.07352539 23.13256836 8.11352539 C22.80256836 7.12352539 22.47256836 6.13352539 22.13256836 5.11352539 C21.08456055 5.20891602 20.03655273 5.30430664 18.95678711 5.40258789 C17.57792814 5.51514781 16.19901907 5.62709503 14.82006836 5.73852539 C13.78462891 5.83520508 13.78462891 5.83520508 12.72827148 5.93383789 C8.87657115 6.23155386 7.4440242 6.32116262 4.13256836 4.11352539 C4.00881836 4.75290039 3.88506836 5.39227539 3.75756836 6.05102539 C3.55131836 6.73165039 3.34506836 7.41227539 3.13256836 8.11352539 C2.14256836 8.60852539 2.14256836 8.60852539 1.13256836 9.11352539 C-0.65805751 12.79425633 -1.37286327 16.39883095 -1.99243164 20.42602539 C-2.16000977 21.4946582 -2.32758789 22.56329102 -2.50024414 23.66430664 C-2.62141602 24.47254883 -2.74258789 25.28079102 -2.86743164 26.11352539 C-3.19743164 26.11352539 -3.52743164 26.11352539 -3.86743164 26.11352539 C-3.76430664 27.20665039 -3.66118164 28.29977539 -3.55493164 29.42602539 C-3.70961914 31.25133789 -3.70961914 31.25133789 -3.86743164 33.11352539 C-6.36743164 35.05102539 -6.36743164 35.05102539 -8.86743164 36.11352539 C-9.26295992 28.13647489 -8.0802551 20.83891542 -6.42993164 13.05102539 C-6.19983398 11.91213867 -5.96973633 10.77325195 -5.73266602 9.59985352 C-3.78625829 0.14990295 -3.78625829 0.14990295 0 0 Z " fill="#064C79" transform="translate(169.867431640625,29.886474609375)"/>
<path d="M0 0 C30.36 0 60.72 0 92 0 C91.67 0.66 91.34 1.32 91 2 C90.34 2 89.68 2 89 2 C89 2.66 89 3.32 89 4 C58.31 4 27.62 4 -4 4 C-3.67 3.34 -3.34 2.68 -3 2 C-2.01 2 -1.02 2 0 2 C0 1.34 0 0.68 0 0 Z " fill="#EF8002" transform="translate(615,33)"/>
<path d="M0 0 C0.33 0 0.66 0 1 0 C1.14479114 4.1265474 1.22112779 7.24027463 0.05859375 11.234375 C-1.11269531 15.40087924 -1.62914655 19.39541674 -2.0625 23.6875 C-2.93378112 32.01867571 -2.93378112 32.01867571 -4 36 C-4.99 36 -5.98 36 -7 36 C-7.03738281 37.24394531 -7.07476563 38.48789063 -7.11328125 39.76953125 C-7.4188649 48.02942405 -7.76097675 55.75835423 -10.30078125 63.6875 C-11.33294059 67.10112194 -11.6657147 70.45657577 -12 74 C-12.66 74 -13.32 74 -14 74 C-14.33 75.98 -14.66 77.96 -15 80 C-5.1 80 4.8 80 15 80 C15.33 77.36 15.66 74.72 16 72 C16.33 72 16.66 72 17 72 C16.67 74.97 16.34 77.94 16 81 C12.60985184 82.13004939 10.00618687 82.12941627 6.43359375 82.1328125 C5.14388672 82.13410156 3.85417969 82.13539063 2.52539062 82.13671875 C1.51955933 82.13357666 1.51955933 82.13357666 0.4934082 82.13037109 C-1.5585059 82.12501043 -3.61020199 82.13032881 -5.66210938 82.13671875 C-7.59473633 82.13478516 -7.59473633 82.13478516 -9.56640625 82.1328125 C-10.75177979 82.13168457 -11.93715332 82.13055664 -13.15844727 82.12939453 C-16 82 -16 82 -18 81 C-17.58427734 79.38931641 -17.58427734 79.38931641 -17.16015625 77.74609375 C-16.79407904 76.30994471 -16.42820442 74.87374401 -16.0625 73.4375 C-15.88009766 72.73302734 -15.69769531 72.02855469 -15.50976562 71.30273438 C-14.64398278 67.88682751 -13.89019245 64.53157644 -13.43359375 61.03515625 C-13 58 -13 58 -12 57 C-11.58427192 55.29485796 -11.22029001 53.57703674 -10.87890625 51.85546875 C-10.66556641 50.78490234 -10.45222656 49.71433594 -10.23242188 48.61132812 C-10.01134766 47.48146484 -9.79027344 46.35160156 -9.5625 45.1875 C-9.23668945 43.55651367 -9.23668945 43.55651367 -8.90429688 41.89257812 C-7.82881231 36.457021 -6.83035065 31.02386444 -5.96484375 25.55078125 C-5.30956782 21.51879792 -4.38714332 17.85070987 -3 14 C-2.42782867 11.54858704 -1.88655704 9.08977483 -1.375 6.625 C-1.11460937 5.37976563 -0.85421875 4.13453125 -0.5859375 2.8515625 C-0.29589844 1.44003906 -0.29589844 1.44003906 0 0 Z " fill="#E3C287" transform="translate(639,63)"/>
<path d="M0 0 C0.33 0 0.66 0 1 0 C1 4.29 1 8.58 1 13 C1.66 12.34 2.32 11.68 3 11 C3.33 12.98 3.66 14.96 4 17 C10.93 17.495 10.93 17.495 18 18 C18.33 16.68 18.66 15.36 19 14 C19.66 14 20.32 14 21 14 C21 12.02 21 10.04 21 8 C21.66 7.67 22.32 7.34 23 7 C23.12375 7.804375 23.2475 8.60875 23.375 9.4375 C23.58125 10.283125 23.7875 11.12875 24 12 C24.66 12.33 25.32 12.66 26 13 C26.33 11.68 26.66 10.36 27 9 C27.05422947 10.4370809 27.09289723 11.87475462 27.125 13.3125 C27.14820313 14.11300781 27.17140625 14.91351563 27.1953125 15.73828125 C27 18 27 18 25 21 C22.01904297 21.34057617 22.01904297 21.34057617 18.2421875 21.29296875 C17.57913605 21.28872391 16.91608459 21.28447906 16.23294067 21.28010559 C14.11321559 21.26329971 11.99443812 21.22564701 9.875 21.1875 C8.43881581 21.17245549 7.00261672 21.15876668 5.56640625 21.14648438 C2.04396236 21.1133909 -1.47792636 21.0615968 -5 21 C-4.34 17.04 -3.68 13.08 -3 9 C-2.34 9 -1.68 9 -1 9 C-0.67 6.03 -0.34 3.06 0 0 Z " fill="#890F2F" transform="translate(397,124)"/>
<path d="M0 0 C23.1 0 46.2 0 70 0 C70 0.33 70 0.66 70 1 C64.29706487 2.19412947 58.66355631 2.20466934 52.86328125 2.28125 C51.7880571 2.29965942 50.71283295 2.31806885 49.60502625 2.33703613 C46.17423801 2.39559097 42.74340008 2.44844375 39.3125 2.5 C34.80850195 2.56820859 30.30464051 2.64197884 25.80078125 2.71875 C24.78268875 2.73232544 23.76459625 2.74590088 22.71565247 2.7598877 C16.10385799 2.87257967 9.57653493 3.31023156 3 4 C2.49095343 5.87256417 1.99317545 7.74819341 1.5 9.625 C1.2215625 10.66914062 0.943125 11.71328125 0.65625 12.7890625 C0.00881404 15.95687418 -0.1161292 18.77741467 0 22 C-2 20 -2 20 -2.125 16.375 C-2.08375 15.26125 -2.0425 14.1475 -2 13 C-1.34 13 -0.68 13 0 13 C0 8.71 0 4.42 0 0 Z " fill="#11626F" transform="translate(38,80)"/>
<path d="M0 0 C1.38620204 4.62547531 0.7122007 8.76698548 0.1875 13.5 C0.10435547 14.35464844 0.02121094 15.20929688 -0.06445312 16.08984375 C-0.15275391 16.91613281 -0.24105469 17.74242188 -0.33203125 18.59375 C-0.41171143 19.34333984 -0.4913916 20.09292969 -0.57348633 20.86523438 C-1 23 -1 23 -3 27 C-3 29.97 -3 32.94 -3 36 C10.86 36.495 10.86 36.495 25 37 C25.495 32.05 25.495 32.05 26 27 C26.33 27 26.66 27 27 27 C27.05422947 28.4370809 27.09289723 29.87475462 27.125 31.3125 C27.14820313 32.11300781 27.17140625 32.91351563 27.1953125 33.73828125 C27 36 27 36 25 39 C19.66275143 40.57717288 14.01513478 40.18405734 8.5 40.1875 C7.46746094 40.19974609 6.43492187 40.21199219 5.37109375 40.22460938 C4.37207031 40.22654297 3.37304688 40.22847656 2.34375 40.23046875 C1.43818359 40.23457764 0.53261719 40.23868652 -0.40039062 40.24291992 C-3.24755992 39.97686682 -5.40827512 39.17930493 -8 38 C-8.196443 33.37657365 -7.52255226 29.62674961 -6.25 25.1875 C-4.6117094 19.34124068 -3.12423167 13.47655959 -1.75 7.5625 C-1.57500977 6.81057373 -1.40001953 6.05864746 -1.21972656 5.28393555 C-0.81129863 3.52305233 -0.4053602 1.76159195 0 0 Z " fill="#EDD178" transform="translate(545,106)"/>
<path d="M0 0 C1.32 0.66 2.64 1.32 4 2 C4 5.3 4 8.6 4 12 C5.32 12 6.64 12 8 12 C8.45375 13.216875 8.9075 14.43375 9.375 15.6875 C9.65085937 16.41582031 9.92671875 17.14414063 10.2109375 17.89453125 C10.82998947 19.54635804 11.42048393 21.2088913 12 22.875 C12.93018872 25.32660607 12.93018872 25.32660607 16 27 C16.33 27.845625 16.66 28.69125 17 29.5625 C17.33 30.366875 17.66 31.17125 18 32 C19.485 32.495 19.485 32.495 21 33 C20.95875 33.7425 20.9175 34.485 20.875 35.25 C21.00398134 38.08758952 21.57051222 39.58773938 23 42 C23.99 42 24.98 42 26 42 C26 43.65 26 45.3 26 47 C24.515 47.495 24.515 47.495 23 48 C22.68885254 47.45287354 22.37770508 46.90574707 22.05712891 46.34204102 C16.2028857 36.05468557 10.32729349 25.78271375 4.29931641 15.59594727 C3.55613576 14.33990531 2.81435827 13.0830317 2.07421875 11.82519531 C1.33067747 10.56185108 0.58300141 9.30093464 -0.16796875 8.04199219 C-3 3.22505482 -3 3.22505482 -3 1 C-2.01 0.67 -1.02 0.34 0 0 Z " fill="#7F293E" transform="translate(452,89)"/>
<path d="M0 0 C2 3 2 3 2 5 C1.34 5 0.68 5 0 5 C0.165 5.78375 0.33 6.5675 0.5 7.375 C0.89993225 10.27450882 1.16090722 13.01971157 1.25 15.9375 C1.28867188 17.12666016 1.28867188 17.12666016 1.328125 18.33984375 C0.97208176 21.22633718 -0.06390095 23.40184656 -1.26513672 26.02612305 C-2.63465134 29.70470303 -2.84617327 33.55138559 -3.1875 37.4375 C-3.26935547 38.26443359 -3.35121094 39.09136719 -3.43554688 39.94335938 C-3.63383855 41.96126882 -3.81835402 43.98052412 -4 46 C-2.02 46.33 -0.04 46.66 2 47 C2 47.33 2 47.66 2 48 C-0.64 48 -3.28 48 -6 48 C-6 46.68 -6 45.36 -6 44 C-6.66 44 -7.32 44 -8 44 C-8.33 44.66 -8.66 45.32 -9 46 C-8.35181768 40.21533291 -7.37539625 34.59494723 -6.15234375 28.90625 C-5.88811363 27.65805481 -5.88811363 27.65805481 -5.61854553 26.38464355 C-5.06129994 23.75575863 -4.49947983 21.12787649 -3.9375 18.5 C-3.55633647 16.70579376 -3.17547418 14.91152349 -2.79492188 13.1171875 C-1.86676101 8.74404403 -0.93449937 4.37179318 0 0 Z " fill="#1C5072" transform="translate(153,94)"/>
<path d="M0 0 C0.33 0 0.66 0 1 0 C1.05513412 1.66627552 1.09329293 3.33311412 1.125 5 C1.14820313 5.928125 1.17140625 6.85625 1.1953125 7.8125 C1 11 1 11 -1 19 C-10.9 19 -20.8 19 -31 19 C-31 17.68 -31 16.36 -31 15 C-22.09 15 -13.18 15 -4 15 C-4 12.69 -4 10.38 -4 8 C-3 5.0625 -3 5.0625 -2 3 C-1.34 3 -0.68 3 0 3 C0 2.01 0 1.02 0 0 Z " fill="#D17A0E" transform="translate(655,124)"/>
<path d="M0 0 C31.68 0 63.36 0 96 0 C96 8.7240255 95.89126272 14.22112649 93 22 C92.34 21.67 91.68 21.34 91 21 C91.495 19.515 91.495 19.515 92 18 C92.09182942 16.46050671 92.13002352 14.91722145 92.125 13.375 C92.12757813 12.57835937 92.13015625 11.78171875 92.1328125 10.9609375 C92.21570074 8.99646464 92.21570074 8.99646464 91 8 C91.33 5.69 91.66 3.38 92 1 C61.64 1 31.28 1 0 1 C0 0.67 0 0.34 0 0 Z " fill="#D97510" transform="translate(619,32)"/>
<path d="M0 0 C0.66 0 1.32 0 2 0 C0.37405681 9.44967457 -1.61863835 18.8133325 -3.625 28.1875 C-3.95327509 29.72718155 -4.28140115 31.26689488 -4.609375 32.80664062 C-5.40453489 36.53812851 -6.20170139 40.26918239 -7 44 C-8.33333333 44 -9.66666667 44 -11 44 C-10.57045059 37.74892565 -9.98598493 31.95795479 -8 26 C-9.32 26 -10.64 26 -12 26 C-12 25.34 -12 24.68 -12 24 C-10.02 24.33 -8.04 24.66 -6 25 C-6 22.36 -6 19.72 -6 17 C-5.34 17 -4.68 17 -4 17 C-3.79503906 15.94039062 -3.59007812 14.88078125 -3.37890625 13.7890625 C-3.10692334 12.40101178 -2.83477956 11.01299256 -2.5625 9.625 C-2.36043945 8.57699219 -2.36043945 8.57699219 -2.15429688 7.5078125 C-1.11328125 2.2265625 -1.11328125 2.2265625 0 0 Z " fill="#8A0A30" transform="translate(526,67)"/>
<path d="M0 0 C0.77943466 0.00222061 1.55886932 0.00444122 2.36192322 0.00672913 C3.68317955 0.00684242 3.68317955 0.00684242 5.03112793 0.00695801 C5.98841293 0.01211929 6.94569794 0.01728058 7.93199158 0.02259827 C9.39480812 0.02472069 9.39480812 0.02472069 10.88717651 0.02688599 C14.01542675 0.03250319 17.14360656 0.04505859 20.27183533 0.05775452 C22.38706867 0.0627673 24.50230313 0.06733059 26.61753845 0.07142639 C31.81482829 0.0824782 37.01207678 0.09923305 42.20933533 0.12025452 C42.20933533 0.45025452 42.20933533 0.78025452 42.20933533 1.12025452 C29.00933533 1.45025452 15.80933533 1.78025452 2.20933533 2.12025452 C0.31636144 11.9015912 0.31636144 11.9015912 -1.55970764 21.68617249 C-1.79834534 22.89934143 -2.03698303 24.11251038 -2.28285217 25.36244202 C-2.52374573 26.60880432 -2.76463928 27.85516663 -3.01283264 29.13929749 C-3.79066467 32.12025452 -3.79066467 32.12025452 -5.79066467 34.12025452 C-5.46066467 31.48025452 -5.13066467 28.84025452 -4.79066467 26.12025452 C-5.45066467 26.12025452 -6.11066467 26.12025452 -6.79066467 26.12025452 C-7.12066467 27.11025452 -7.45066467 28.10025452 -7.79066467 29.12025452 C-7.13794911 25.60319494 -6.27673444 22.22700375 -5.22816467 18.80775452 C-4.95875061 17.9247467 -4.68933655 17.04173889 -4.41175842 16.13197327 C-4.10431702 15.13617249 -4.10431702 15.13617249 -3.79066467 14.12025452 C-3.46066467 14.12025452 -3.13066467 14.12025452 -2.79066467 14.12025452 C-2.80226624 13.19341858 -2.8138678 12.26658264 -2.82582092 11.31166077 C-2.83484436 10.1141217 -2.8438678 8.91658264 -2.85316467 7.68275452 C-2.86476624 6.48779358 -2.8763678 5.29283264 -2.88832092 4.06166077 C-2.75962456 0.18532633 -2.75962456 0.18532633 0 0 Z " fill="#EDC081" transform="translate(670.7906646728516,54.87974548339844)"/>
<path d="M0 0 C9.57 0 19.14 0 29 0 C30.481767 2.963534 29.5299726 4.93780892 28.8203125 8.14453125 C28.55089844 9.37880859 28.28148437 10.61308594 28.00390625 11.88476562 C27.71113579 13.19405477 27.4181651 14.50329916 27.125 15.8125 C26.56499448 18.36065298 26.00509453 20.90882916 25.4453125 23.45703125 C25.19281738 24.59116455 24.94032227 25.72529785 24.68017578 26.89379883 C24.08959757 29.59082917 23.530795 32.29066796 23 35 C22.67 35 22.34 35 22 35 C21.78384027 27.31432064 21.97263343 19.87157667 22.9375 12.25 C23.02435059 11.5590625 23.11120117 10.868125 23.20068359 10.15625 C23.86026923 5.27946153 23.86026923 5.27946153 25 3 C22.0804957 2.0268319 19.94555049 1.8070454 16.89453125 1.68359375 C15.42016602 1.62075195 15.42016602 1.62075195 13.91601562 1.55664062 C12.89185547 1.51732422 11.86769531 1.47800781 10.8125 1.4375 C9.77673828 1.39431641 8.74097656 1.35113281 7.67382812 1.30664062 C5.1160181 1.20055634 2.55811155 1.09849854 0 1 C0 0.67 0 0.34 0 0 Z " fill="#830831" transform="translate(506,30)"/>
<path d="M0 0 C0.66 0 1.32 0 2 0 C2.33 2.31 2.66 4.62 3 7 C3.6290625 6.855625 4.258125 6.71125 4.90625 6.5625 C9.04487265 5.66496738 12.94000462 4.86648345 17.1875 5 C21.85209845 5 25.82218526 4.08890737 30 2 C30.04254356 3.99954746 30.04080783 6.00041636 30 8 C29 9 29 9 26.13256836 9.11352539 C24.88096924 9.10828857 23.62937012 9.10305176 22.33984375 9.09765625 C21.34314415 9.09553383 21.34314415 9.09553383 20.3263092 9.09336853 C18.19666101 9.08775518 16.06711661 9.07520054 13.9375 9.0625 C12.49674631 9.05748671 11.05599097 9.05292351 9.61523438 9.04882812 C6.07678898 9.03778145 2.53840461 9.02050792 -1 9 C-0.67 6.03 -0.34 3.06 0 0 Z " fill="#1A525E" transform="translate(26,136)"/>
<path d="M0 0 C0.33 0 0.66 0 1 0 C1.23336503 6.30085581 0.3931762 11.86830476 -1 18 C-1.66 20.97 -2.32 23.94 -3 27 C-12.9 27 -22.8 27 -33 27 C-32.67 26.34 -32.34 25.68 -32 25 C-22.76 25 -13.52 25 -4 25 C-4.33 22.69 -4.66 20.38 -5 18 C-4.5625 14.5625 -4.5625 14.5625 -4 12 C-3.34 12 -2.68 12 -2 12 C-2 8.7 -2 5.4 -2 2 C-1.34 2 -0.68 2 0 2 C0 1.34 0 0.68 0 0 Z " fill="#671630" transform="translate(515,117)"/>
<path d="M0 0 C3.56479296 4.17542879 6.26806296 8.63964247 9 13.375 C9.63808594 14.46941406 9.63808594 14.46941406 10.2890625 15.5859375 C11.12803024 17.02710907 11.96277784 18.47074691 12.79296875 19.91699219 C13.59241867 21.29662542 14.40742618 22.66736922 15.23828125 24.02832031 C16.21697113 25.65190292 17.11671286 27.32260374 18 29 C17.67 29.66 17.34 30.32 17 31 C16.34 30.67 15.68 30.34 15 30 C15 29.34 15 28.68 15 28 C14.40445312 27.75636719 13.80890625 27.51273438 13.1953125 27.26171875 C7.07330363 23.74319764 4.76183531 16.41811436 3 10 C2.29875 9.29875 1.5975 8.5975 0.875 7.875 C-1 6 -1 6 -1.3125 3.3125 C-1 1 -1 1 0 0 Z " fill="#842941" transform="translate(464,59)"/>
<path d="M0 0 C0.61875 0.66 1.2375 1.32 1.875 2 C3.75637427 4.2284549 3.75637427 4.2284549 6 4 C6.33 4.66 6.66 5.32 7 6 C13.93 6 20.86 6 28 6 C28.33 5.01 28.66 4.02 29 3 C30.32 3 31.64 3 33 3 C33 4.65 33 6.3 33 8 C23.76 8.33 14.52 8.66 5 9 C18.86 9.495 18.86 9.495 33 10 C33 10.33 33 10.66 33 11 C28.81923925 11.14883585 24.63989863 11.25743418 20.45727539 11.32958984 C19.0361036 11.35967954 17.61511628 11.40056404 16.19458008 11.45263672 C4.43911411 11.87262184 4.43911411 11.87262184 0.92724609 9.74316406 C-1.30763609 7.19374291 -2 5.37938706 -2 2 C-1.34 2 -0.68 2 0 2 C0 1.34 0 0.68 0 0 Z " fill="#A24663" transform="translate(478,134)"/>
<path d="M0 0 C0.66 0 1.32 0 2 0 C1.625 1.9375 1.625 1.9375 1 4 C0.34 4.33 -0.32 4.66 -1 5 C-1.33 5.99 -1.66 6.98 -2 8 C-28.4 8 -54.8 8 -82 8 C-82 7.67 -82 7.34 -82 7 C-77.44318707 6.26575206 -73.1266943 5.89337372 -68.51391602 5.97827148 C-66.65277916 6.00841591 -66.65277916 6.00841591 -64.75404358 6.03916931 C-63.420662 6.06635681 -62.08728294 6.09366779 -60.75390625 6.12109375 C-59.37386411 6.14543114 -57.99381314 6.16927281 -56.61375427 6.19264221 C-53.00190083 6.25512354 -49.39020591 6.32428959 -45.77850342 6.39489746 C-42.08483019 6.46590812 -38.39104562 6.53052839 -34.69726562 6.59570312 C-27.46472048 6.72425118 -20.23233098 6.85986877 -13 7 C-13 6.34 -13 5.68 -13 5 C-11.96939453 4.96132812 -11.96939453 4.96132812 -10.91796875 4.921875 C-10.01691406 4.86515625 -9.11585938 4.8084375 -8.1875 4.75 C-7.29417969 4.70359375 -6.40085937 4.6571875 -5.48046875 4.609375 C-2.35319285 3.84109935 -1.73954115 2.61192365 0 0 Z " fill="#1A4F7C" transform="translate(237,134)"/>
<path d="M0 0 C0.99 0 1.98 0 3 0 C5.39425597 4.50683477 4.83989551 8.16147151 4 13 C3.80887877 14.33281908 3.62111026 15.66612546 3.4375 17 C3.293125 17.99 3.14875 18.98 3 20 C2.34 20 1.68 20 1 20 C1.020625 21.11375 1.04125 22.2275 1.0625 23.375 C1 27 1 27 0 29 C-0.66 29 -1.32 29 -2 29 C-1.67 26.36 -1.34 23.72 -1 21 C-1.66 21 -2.32 21 -3 21 C-3.15639125 15.93683317 -2.62766071 11.49601562 -1.5 6.5625 C-1.2215625 5.32628906 -0.943125 4.09007813 -0.65625 2.81640625 C-0.4396875 1.88699219 -0.223125 0.95757812 0 0 Z " fill="#0E4F7C" transform="translate(178,90)"/>
<path d="M0 0 C0.33 0 0.66 0 1 0 C1.52070379 8.68482493 -0.08595006 16.85291459 -1.8125 25.3125 C-2.07699323 26.65022849 -2.34066921 27.98811883 -2.60351562 29.32617188 C-7.32570971 53.1868509 -7.32570971 53.1868509 -10 58 C-10.39234037 48.73640783 -10.48980109 37.3043069 -6 29 C-5.835 27.824375 -5.67 26.64875 -5.5 25.4375 C-5 22 -5 22 -3 19 C-2.45642729 16.88158412 -2.45642729 16.88158412 -2.1484375 14.55078125 C-2.01953125 13.70322266 -1.890625 12.85566406 -1.7578125 11.98242188 C-1.63148438 11.10134766 -1.50515625 10.22027344 -1.375 9.3125 C-1.2409375 8.41982422 -1.106875 7.52714844 -0.96875 6.60742188 C-0.63910373 4.40585573 -0.31646086 2.20349353 0 0 Z " fill="#EDCC6F" transform="translate(591,31)"/>
<path d="M0 0 C1 3.875 1 3.875 1 5 C1.66 3.68 2.32 2.36 3 1 C3.125 6.75 3.125 6.75 2 9 C-11.53 9 -25.06 9 -39 9 C-39 8.67 -39 8.34 -39 8 C-31.08 7.505 -31.08 7.505 -23 7 C-23 6.67 -23 6.34 -23 6 C-16.73 5.67 -10.46 5.34 -4 5 C-4.66 4.67 -5.32 4.34 -6 4 C-6 3.01 -6 2.02 -6 1 C-4.02 0.67 -2.04 0.34 0 0 Z " fill="#DD8522" transform="translate(711,46)"/>
<path d="M0 0 C9.9 0 19.8 0 30 0 C30 2.31 30 4.62 30 7 C29.67 7 29.34 7 29 7 C29 5.35 29 3.7 29 2 C27.68 2 26.36 2 25 2 C25.33 3.98 25.66 5.96 26 8 C25.67 7.01 25.34 6.02 25 5 C20.05 5.33 15.1 5.66 10 6 C9.34 4.68 8.68 3.36 8 2 C5.32209537 1.16113831 2.8262059 1.18233586 0 1 C0 0.67 0 0.34 0 0 Z " fill="#3C7A93" transform="translate(167,30)"/>
<path d="M0 0 C0.33 0 0.66 0 1 0 C0.41198771 6.16800389 -0.5657924 12.03986734 -2 18.0625 C-3.04604948 22.47789002 -4.03112896 26.82864541 -4.55859375 31.33984375 C-4.97751964 34.81359204 -5.77532289 37.73419436 -7 41 C-7.33 41 -7.66 41 -8 41 C-8.38699804 18.76911277 -8.38699804 18.76911277 -4.0625 9.5 C-2.62157829 6.36141053 -1.24726689 3.22210612 0 0 Z " fill="#D17C1A" transform="translate(664,91)"/>
<path d="M0 0 C2 2 2 2 2.08422852 3.86865234 C1.20414658 11.56555854 -0.38496724 19.06637213 -2.0625 26.625 C-2.34751999 27.92827294 -2.63202868 29.23165781 -2.91601562 30.53515625 C-3.60567775 33.69123718 -4.30044588 36.84609966 -5 40 C-6.0625 38.125 -6.0625 38.125 -7 36 C-6.67 35.34 -6.34 34.68 -6 34 C-5.97986209 32.10415915 -6.00780909 30.20765882 -6.0625 28.3125 C-6.11557717 23.41170837 -5.66873273 19.58901499 -4 15 C-4.66 15 -5.32 15 -6 15 C-4.32258065 11.25806452 -4.32258065 11.25806452 -2.4375 9.75 C-0.06970784 6.86747041 -0.29987295 3.65844994 0 0 Z " fill="#973951" transform="translate(431,91)"/>
<path d="M0 0 C0.33 0 0.66 0 1 0 C1.14479114 4.1265474 1.22112779 7.24027463 0.05859375 11.234375 C-1.11269531 15.40087924 -1.62914655 19.39541674 -2.0625 23.6875 C-2.93378112 32.01867571 -2.93378112 32.01867571 -4 36 C-4.99 36 -5.98 36 -7 36 C-7.03738281 37.03640625 -7.07476563 38.0728125 -7.11328125 39.140625 C-7.17895788 40.51045184 -7.24540464 41.88024191 -7.3125 43.25 C-7.33505859 43.93191406 -7.35761719 44.61382812 -7.38085938 45.31640625 C-7.60166604 49.45151296 -8.09593 51.97914434 -11 55 C-10.19690631 47.72703921 -8.89462513 40.56769894 -7.5625 33.375 C-7.23668945 31.57289062 -7.23668945 31.57289062 -6.90429688 29.734375 C-6.68966797 28.57164063 -6.47503906 27.40890625 -6.25390625 26.2109375 C-6.06127197 25.16212402 -5.8686377 24.11331055 -5.67016602 23.03271484 C-4.9838647 19.92698264 -4.0319841 17.00627074 -3 14 C-2.42782867 11.54858704 -1.88655704 9.08977483 -1.375 6.625 C-1.11460937 5.37976563 -0.85421875 4.13453125 -0.5859375 2.8515625 C-0.29589844 1.44003906 -0.29589844 1.44003906 0 0 Z " fill="#DFAB5E" transform="translate(639,63)"/>
<path d="M0 0 C0.99 0.66 1.98 1.32 3 2 C2.65332275 2.5576001 2.30664551 3.1152002 1.94946289 3.68969727 C-5.12402963 15.07347139 -12.15133212 26.47937264 -19 38 C-21 35 -21 35 -20.625 32.3125 C-20.41875 31.549375 -20.2125 30.78625 -20 30 C-18.68 30 -17.36 30 -16 30 C-16 28.68 -16 27.36 -16 26 C-15.34 26 -14.68 26 -14 26 C-13.938125 25.319375 -13.87625 24.63875 -13.8125 23.9375 C-12.73598615 20.04548838 -10.74334968 16.96555246 -8 14 C-7.34 14 -6.68 14 -6 14 C-5.87625 13.278125 -5.7525 12.55625 -5.625 11.8125 C-5.0095069 9.04278106 -4.11555626 6.6029646 -3 4 C-2.34 4 -1.68 4 -1 4 C-0.67 2.68 -0.34 1.36 0 0 Z " fill="#5C4E62" transform="translate(304,105)"/>
<path d="M0 0 C0.33 0 0.66 0 1 0 C1.18451025 16.8929385 1.18451025 16.8929385 0 24 C-0.99 24 -1.98 24 -3 24 C-3 26.64 -3 29.28 -3 32 C-3.66 32 -4.32 32 -5 32 C-5.99 37.28 -6.98 42.56 -8 48 C-8.33 48 -8.66 48 -9 48 C-9.35274462 42.70883071 -8.40614695 38.55770427 -6.92578125 33.4921875 C-5.09437996 26.58386366 -3.85071111 19.53679696 -2.49169922 12.52294922 C-1.67752682 8.34536352 -0.83854078 4.17275185 0 0 Z " fill="#EFD077" transform="translate(555,57)"/>
<path d="M0 0 C0.99 0.66 1.98 1.32 3 2 C2.24700814 9.52991862 2.24700814 9.52991862 0.9921875 11.91796875 C-0.61112768 15.28240572 -0.45670919 18.76486682 -0.65625 22.44140625 C-1 25 -1 25 -3 28 C-3.39996404 30.15536176 -3.7256849 32.32507315 -4 34.5 C-4.77777778 40.66666667 -4.77777778 40.66666667 -7 44 C-6.71953571 40.64479941 -6.42359578 37.29113172 -6.125 33.9375 C-6.04636719 32.99455078 -5.96773437 32.05160156 -5.88671875 31.08007812 C-5.40908955 25.80778658 -4.5466953 21.08286533 -3 16 C-2.60470889 13.56883048 -2.24979103 11.13071808 -1.9375 8.6875 C-1.10443491 2.20886981 -1.10443491 2.20886981 0 0 Z " fill="#D67A0C" transform="translate(642,55)"/>
<path d="M0 0 C0.98484375 -0.00128906 1.9696875 -0.00257812 2.984375 -0.00390625 C4.54285156 0.00189453 4.54285156 0.00189453 6.1328125 0.0078125 C7.133125 0.00394531 8.1334375 0.00007813 9.1640625 -0.00390625 C15.91334457 0.00481375 22.54840611 0.40644273 29.2578125 1.1328125 C29.2578125 1.4628125 29.2578125 1.7928125 29.2578125 2.1328125 C23.7578549 3.28964492 18.41804522 3.26073161 12.828125 3.23046875 C11.3426265 3.22834633 11.3426265 3.22834633 9.82711792 3.22618103 C6.67898477 3.22060502 3.53092398 3.20805692 0.3828125 3.1953125 C-1.75781147 3.1902944 -3.89843656 3.18573204 -6.0390625 3.18164062 C-11.27346199 3.17064344 -16.50781957 3.15392925 -21.7421875 3.1328125 C-21.7421875 2.8028125 -21.7421875 2.4728125 -21.7421875 2.1328125 C-20.59878906 2.07222656 -19.45539063 2.01164062 -18.27734375 1.94921875 C-16.78644445 1.86482822 -15.29555975 1.78017948 -13.8046875 1.6953125 C-13.04994141 1.65599609 -12.29519531 1.61667969 -11.51757812 1.57617188 C-7.22472513 1.32591587 -4.22911704 0.00536982 0 0 Z " fill="#65A1B5" transform="translate(85.7421875,101.8671875)"/>
<path d="M0 0 C0.33 0 0.66 0 1 0 C1.33 2.97 1.66 5.94 2 9 C1.34 9 0.68 9 0 9 C0.33 12.3 0.66 15.6 1 19 C4.48891931 20.1629731 7.35936251 20.19393666 11.0390625 20.28125 C11.72052338 20.29965942 12.40198425 20.31806885 13.10409546 20.33703613 C16.01748086 20.41566686 18.93108981 20.48366731 21.84472656 20.55224609 C23.97212601 20.60384523 26.09931925 20.66112146 28.2265625 20.71875 C30.13816162 20.76418945 30.13816162 20.76418945 32.08837891 20.81054688 C35 21 35 21 36 22 C36.04092937 24.33297433 36.04241723 26.66705225 36 29 C35.67 29 35.34 29 35 29 C34.505 26.03 34.505 26.03 34 23 C32.37203491 22.96241577 32.37203491 22.96241577 30.71118164 22.92407227 C26.698684 22.83016245 22.68636618 22.72990233 18.67407227 22.62768555 C16.93485712 22.58427427 15.19559765 22.54260388 13.45629883 22.50268555 C10.96161512 22.44513232 8.4671559 22.3813958 5.97265625 22.31640625 C5.19036148 22.29969376 4.40806671 22.28298126 3.60206604 22.26576233 C-1.88612829 22.11387171 -1.88612829 22.11387171 -3 21 C-2.42085867 13.93447571 -1.21649689 6.9800938 0 0 Z " fill="#E6B879" transform="translate(605,34)"/>
<path d="M0 0 C1.19214883 3.57644648 0.73851364 5.3074318 0.00390625 8.98046875 C-0.20161865 10.02871826 -0.40714355 11.07696777 -0.61889648 12.15698242 C-0.88903564 13.48705322 -1.1591748 14.81712402 -1.4375 16.1875 C-2.283125 20.415625 -3.12875 24.64375 -4 29 C-13.57 29 -23.14 29 -33 29 C-33 28.67 -33 28.34 -33 28 C-24.09 28 -15.18 28 -6 28 C-5.9175 25.586875 -5.835 23.17375 -5.75 20.6875 C-5.42256749 14.06984539 -4.95053573 4.95053573 0 0 Z " fill="#D6A01C" transform="translate(574,114)"/>
<path d="M0 0 C0.33 0.99 0.66 1.98 1 3 C1.66 3 2.32 3 3 3 C2.67 5.64 2.34 8.28 2 11 C22.79 11.33 43.58 11.66 65 12 C65.495 12.99 65.495 12.99 66 14 C65.0625 16.125 65.0625 16.125 64 18 C64 16.35 64 14.7 64 13 C62.92671196 13.00333092 62.92671196 13.00333092 61.83174133 13.00672913 C55.07859181 13.0267914 48.32545065 13.0420044 41.57227802 13.05181217 C38.10066262 13.05702399 34.6290719 13.06409068 31.1574707 13.07543945 C27.16357185 13.08841348 23.16969881 13.09324228 19.17578125 13.09765625 C17.93290848 13.10281754 16.69003571 13.10797882 15.40950012 13.11329651 C13.66826118 13.11340981 13.66826118 13.11340981 11.8918457 13.11352539 C10.87258499 13.115746 9.85332428 13.11796661 8.80317688 13.12025452 C6 13 6 13 1 12 C0.67 8.04 0.34 4.08 0 0 Z " fill="#497B94" transform="translate(178,107)"/>
<path d="M0 0 C20.79 0.33 41.58 0.66 63 1 C63 7 63 7 62 9 C61.34 9 60.68 9 60 9 C60 6.69 60 4.38 60 2 C59.14921875 2.0721875 58.2984375 2.144375 57.421875 2.21875 C38.59335383 3.6609346 19.84087351 2.91716318 1 2 C0.67 1.34 0.34 0.68 0 0 Z " fill="#0E5174" transform="translate(179,119)"/>
<path d="M0 0 C0.99 0.33 1.98 0.66 3 1 C3.99 1 4.98 1 6 1 C9.11257569 1 11.10765685 1.17361624 14 2 C14 2.66 14 3.32 14 4 C8.77254141 5.2063366 4.23471686 4.75612577 -1 4 C-1 4.66 -1 5.32 -1 6 C8.9 6 18.8 6 29 6 C29 6.33 29 6.66 29 7 C17.78 7 6.56 7 -5 7 C-3 2 -3 2 0 0 Z " fill="#78637A" transform="translate(254,138)"/>
<path d="M0 0 C0.33 0 0.66 0 1 0 C0.35381109 7.36655354 -1.0318589 14.48911879 -2.53222656 21.72558594 C-3.43715736 26.12555218 -4.30924605 30.53214692 -5.1875 34.9375 C-5.53503588 36.67580532 -5.88268206 38.41408859 -6.23046875 40.15234375 C-6.48441406 41.42207031 -6.73835937 42.69179687 -7 44 C-7.33 44 -7.66 44 -8 44 C-7.03644647 31.33029613 -7.03644647 31.33029613 -6 26 C-6.66 26.66 -7.32 27.32 -8 28 C-8 26.35 -8 24.7 -8 23 C-7.01 22.67 -6.02 22.34 -5 22 C-4.97421875 21.33355469 -4.9484375 20.66710937 -4.921875 19.98046875 C-4.47603402 12.7355529 -2.78101468 6.68737019 0 0 Z " fill="#EECE6E" transform="translate(580,89)"/>
<path d="M0 0 C0.33 0 0.66 0 1 0 C1.3364486 18.99065421 1.3364486 18.99065421 -1 26 C-1.66 26 -2.32 26 -3 26 C-3.33 26.66 -3.66 27.32 -4 28 C-4.38096318 18.5887984 -3.78328869 10.04208296 -1 1 C-0.67 0.67 -0.34 0.34 0 0 Z " fill="#81132A" transform="translate(501,53)"/>
<path d="M0 0 C3.77076889 -0.05799124 7.54142334 -0.09359306 11.3125 -0.125 C12.38435547 -0.14175781 13.45621094 -0.15851562 14.56054688 -0.17578125 C15.58857422 -0.18222656 16.61660156 -0.18867188 17.67578125 -0.1953125 C18.62364502 -0.20578613 19.57150879 -0.21625977 20.5480957 -0.22705078 C23 0 23 0 26 2 C26 2.66 26 3.32 26 4 C25.34 4 24.68 4 24 4 C23.67 4.66 23.34 5.32 23 6 C19.62537285 5.45276317 17.91765 4.9451 15 3 C11.80193335 2.5396236 11.80193335 2.5396236 8.3125 2.375 C6.54326172 2.26285156 6.54326172 2.26285156 4.73828125 2.1484375 C3.83464844 2.09945312 2.93101562 2.05046875 2 2 C1.67 3.98 1.34 5.96 1 8 C0.67 8 0.34 8 0 8 C0 5.36 0 2.72 0 0 Z " fill="#8C082E" transform="translate(505,31)"/>
<path d="M0 0 C3.99974981 -0.11710979 7.99905281 -0.18755489 12 -0.25 C13.12535156 -0.28351562 14.25070313 -0.31703125 15.41015625 -0.3515625 C23.72703095 -0.44883589 29.14678818 0.53210936 35.5 6.25 C35.995 6.8275 36.49 7.405 37 8 C36.44570312 7.83242188 35.89140625 7.66484375 35.3203125 7.4921875 C34.59585938 7.28851563 33.87140625 7.08484375 33.125 6.875 C32.40570313 6.66617188 31.68640625 6.45734375 30.9453125 6.2421875 C30.30335938 6.16226563 29.66140625 6.08234375 29 6 C28.34 6.66 27.68 7.32 27 8 C24.525 6.515 24.525 6.515 22 5 C22.33 3.68 22.66 2.36 23 1 C15.41 1 7.82 1 0 1 C0 0.67 0 0.34 0 0 Z " fill="#317C86" transform="translate(107,31)"/>
<path d="M0 0 C2.18714826 3.2807224 2.22647784 4.21149381 2.125 8 C2.10695313 8.86625 2.08890625 9.7325 2.0703125 10.625 C2.03550781 11.800625 2.03550781 11.800625 2 13 C2 13.99 2 14.98 2 16 C0.02 16.99 0.02 16.99 -2 18 C-1.938125 18.763125 -1.87625 19.52625 -1.8125 20.3125 C-2 23 -2 23 -3.5 24.8125 C-3.995 25.204375 -4.49 25.59625 -5 26 C-4.35215814 20.05349367 -3.28016565 14.32612517 -1.9375 8.5 C-1.75123047 7.67757812 -1.56496094 6.85515625 -1.37304688 6.0078125 C-0.91879115 4.0044283 -0.45988401 2.0020997 0 0 Z " fill="#8F2940" transform="translate(402,97)"/>
<path d="M0 0 C0.66 0 1.32 0 2 0 C1.52445324 8.14988753 0.40897994 14.56073817 -5 21 C-6 20 -6 20 -6.09765625 17.93359375 C-6.08605469 17.10988281 -6.07445312 16.28617188 -6.0625 15.4375 C-6.05347656 14.61121094 -6.04445313 13.78492187 -6.03515625 12.93359375 C-6.02355469 12.29550781 -6.01195312 11.65742187 -6 11 C-5.03126953 10.59587891 -5.03126953 10.59587891 -4.04296875 10.18359375 C-3.36878906 9.79300781 -2.69460938 9.40242188 -2 9 C-1.24662241 6.06314844 -1.24662241 6.06314844 -1 3 C-0.67 2.01 -0.34 1.02 0 0 Z " fill="#DF800A" transform="translate(664,81)"/>
<path d="M0 0 C0.66 0.33 1.32 0.66 2 1 C2.27722188 9.31665653 2.19069772 18.5870431 -2 26 C-2.66 26 -3.32 26 -4 26 C-4.33 26.99 -4.66 27.98 -5 29 C-4.35963063 22.37386221 -3.29028836 15.95287291 -1.9375 9.4375 C-1.75123047 8.52419922 -1.56496094 7.61089844 -1.37304688 6.66992188 C-0.91891897 4.44585955 -0.461187 2.22260724 0 0 Z " fill="#3F6A88" transform="translate(166,31)"/>
<path d="M0 0 C1.32 0.66 2.64 1.32 4 2 C4 5.3 4 8.6 4 12 C5.32 12 6.64 12 8 12 C8.625 15.375 8.625 15.375 9 19 C8.34 19.66 7.68 20.32 7 21 C5.3264663 18.04550087 3.66236015 15.0857982 2 12.125 C1.52304687 11.28324219 1.04609375 10.44148438 0.5546875 9.57421875 C0.10351562 8.76855469 -0.34765625 7.96289062 -0.8125 7.1328125 C-1.23144531 6.38918457 -1.65039062 5.64555664 -2.08203125 4.87939453 C-3 3 -3 3 -3 1 C-2.01 0.67 -1.02 0.34 0 0 Z " fill="#7F2E41" transform="translate(452,89)"/>
<path d="M0 0 C3.72797536 3.44261579 5.81512032 7.66389673 8.25 12.0625 C8.72179687 12.89072266 9.19359375 13.71894531 9.6796875 14.57226562 C10.12054688 15.36439453 10.56140625 16.15652344 11.015625 16.97265625 C11.42071289 17.69718994 11.82580078 18.42172363 12.24316406 19.16821289 C12.49291992 19.77270264 12.74267578 20.37719238 13 21 C12.67 21.66 12.34 22.32 12 23 C11.34 23 10.68 23 10 23 C7.97736627 20.81555558 7.06741203 19.39484187 6.5625 16.4375 C6.24441978 13.85663295 6.24441978 13.85663295 4.0625 12.5625 C1.24266672 10.42626266 0.89279857 8.36516386 0 5 C-0.226875 4.236875 -0.45375 3.47375 -0.6875 2.6875 C-0.790625 2.130625 -0.89375 1.57375 -1 1 C-0.67 0.67 -0.34 0.34 0 0 Z " fill="#842A43" transform="translate(451,36)"/>
<path d="M0 0 C3.89484681 5.84227021 3.57398718 12.15869337 3 19 C0.26809357 32.01036625 0.26809357 32.01036625 -4 37 C-4.33 35.35 -4.66 33.7 -5 32 C-4.01 32 -3.02 32 -2 32 C-0.63673731 21.2643063 0.31366039 10.83870913 0 0 Z " fill="#5893A2" transform="translate(148,46)"/>
<path d="M0 0 C0.99 0 1.98 0 3 0 C3 1.65 3 3.3 3 5 C-6.9 5 -16.8 5 -27 5 C-27 4.34 -27 3.68 -27 3 C-18.09 3 -9.18 3 0 3 C0 2.01 0 1.02 0 0 Z " fill="#22416A" transform="translate(235,139)"/>
<path d="M0 0 C1.98 0.33 3.96 0.66 6 1 C5.67 1.99 5.34 2.98 5 4 C-7.54 4 -20.08 4 -33 4 C-33 3.67 -33 3.34 -33 3 C-30.94921875 2.77213542 -28.8984375 2.54427083 -26.84765625 2.31640625 C-24.98859771 2.18113386 -24.98859771 2.18113386 -24 1 C-20.5 0.875 -20.5 0.875 -17 1 C-16.67 1.33 -16.34 1.66 -16 2 C-13.46950598 2.07313567 -10.96695163 2.09247527 -8.4375 2.0625 C-7.37112305 2.05573242 -7.37112305 2.05573242 -6.28320312 2.04882812 C-4.52209987 2.03700864 -2.76103964 2.01907263 -1 2 C-0.67 1.34 -0.34 0.68 0 0 Z " fill="#00697C" transform="translate(81,49)"/>
<path d="M0 0 C4.3749437 -0.05826088 8.74978698 -0.09368457 13.125 -0.125 C14.3625 -0.14175781 15.6 -0.15851562 16.875 -0.17578125 C18.07382812 -0.18222656 19.27265625 -0.18867188 20.5078125 -0.1953125 C21.60754395 -0.20578613 22.70727539 -0.21625977 23.84033203 -0.22705078 C27.22028651 0.01582958 29.88255227 0.68119031 33 2 C33.875 4.125 33.875 4.125 34 6 C32.68 6 31.36 6 30 6 C30 5.01 30 4.02 30 3 C29.33991943 2.97494385 28.67983887 2.9498877 27.99975586 2.92407227 C24.97884631 2.80728248 21.95818578 2.68493554 18.9375 2.5625 C17.89916016 2.52318359 16.86082031 2.48386719 15.79101562 2.44335938 C10.45969359 2.22333656 5.26310107 1.8883816 0 1 C0 0.67 0 0.34 0 0 Z " fill="#A86375" transform="translate(417,30)"/>
<path d="M0 0 C0.33 0 0.66 0 1 0 C1 1.98 1 3.96 1 6 C-8.9 6 -18.8 6 -29 6 C-28.67 4.68 -28.34 3.36 -28 2 C-28 2.66 -28 3.32 -28 4 C-19.09 3.67 -10.18 3.34 -1 3 C-0.67 2.01 -0.34 1.02 0 0 Z " fill="#A56510" transform="translate(653,137)"/>
<path d="M0 0 C0.99 0 1.98 0 3 0 C2.34 3.3 1.68 6.6 1 10 C0.34 10 -0.32 10 -1 10 C-1.66 11.32 -2.32 12.64 -3 14 C-3.99 13.67 -4.98 13.34 -6 13 C-6.99 13 -7.98 13 -9 13 C-9 10 -9 10 -7.25 8 C-5 6 -5 6 -2.8125 4.4375 C-0.70898442 3.0382681 -0.70898442 3.0382681 0 0 Z " fill="#4E2E52" transform="translate(262,127)"/>
<path d="M0 0 C2 3 2 3 2 5 C1.34 5 0.68 5 0 5 C0.165 5.78375 0.33 6.5675 0.5 7.375 C1.12976855 11.94082197 1.60527642 16.40933207 1 21 C-1 23.625 -1 23.625 -3 25 C-4.48332052 19.30927347 -3.36171897 14.70869836 -2.0625 9.125 C-1.86720703 8.24585937 -1.67191406 7.36671875 -1.47070312 6.4609375 C-0.9902767 4.30487742 -0.49983765 2.15162745 0 0 Z " fill="#346486" transform="translate(153,94)"/>
<path d="M0 0 C2.73722628 5.10948905 2.73722628 5.10948905 3 8 C2.505 8.804375 2.01 9.60875 1.5 10.4375 C-0.35636578 13.60879154 0.29029251 14.54017599 1 18 C-0.3125 20.3125 -0.3125 20.3125 -2 22 C-2.66 22 -3.32 22 -4 22 C-3.67 18.37 -3.34 14.74 -3 11 C-2.34 11 -1.68 11 -1 11 C-1.01160156 10.28972656 -1.02320313 9.57945313 -1.03515625 8.84765625 C-1.04869141 7.46900391 -1.04869141 7.46900391 -1.0625 6.0625 C-1.07410156 5.14597656 -1.08570313 4.22945312 -1.09765625 3.28515625 C-1 1 -1 1 0 0 Z " fill="#941838" transform="translate(412,57)"/>
<path d="M0 0 C0.66 0 1.32 0 2 0 C1.67 3.3 1.34 6.6 1 10 C0.34 10 -0.32 10 -1 10 C-1.66 13.3 -2.32 16.6 -3 20 C-3.66 19.34 -4.32 18.68 -5 18 C-5.66 18.33 -6.32 18.66 -7 19 C-7 15.7 -7 12.4 -7 9 C-6.01 8.67 -5.02 8.34 -4 8 C-3.67 8.66 -3.34 9.32 -3 10 C-2.01 6.7 -1.02 3.4 0 0 Z " fill="#A20832" transform="translate(527,57)"/>
<path d="M0 0 C0.66 0 1.32 0 2 0 C0.36817921 9.74798208 -1.81637316 19.36448155 -4 29 C-4.33 29 -4.66 29 -5 29 C-5.9074026 18.53462339 -3.24990573 9.79614442 0 0 Z " fill="#933E5A" transform="translate(526,67)"/>
<path d="M0 0 C0.66 0 1.32 0 2 0 C0.32508169 4.88036541 -2.36791961 8.99152948 -5.125 13.3125 C-5.59292969 14.05306641 -6.06085938 14.79363281 -6.54296875 15.55664062 C-7.69164196 17.37341968 -8.84532369 19.18703037 -10 21 C-10.33 20.01 -10.66 19.02 -11 18 C-11.66 18 -12.32 18 -13 18 C-12.67 17.34 -12.34 16.68 -12 16 C-11.34 16.33 -10.68 16.66 -10 17 C-9.71125 16.278125 -9.4225 15.55625 -9.125 14.8125 C-8.39942386 12.99855966 -7.67050416 11.18595146 -6.9375 9.375 C-6.23822653 7.6035072 -5.60225992 5.80677977 -5 4 C-4.34 4 -3.68 4 -3 4 C-2.67 3.34 -2.34 2.68 -2 2 C-1.34 2 -0.68 2 0 2 C0 1.34 0 0.68 0 0 Z " fill="#6D5A75" transform="translate(326,72)"/>
<path d="M0 0 C0.33 0 0.66 0 1 0 C1 3.3 1 6.6 1 10 C5.0829596 10.14518182 9.16525641 10.23403347 13.25 10.3125 C14.40886719 10.35439453 15.56773437 10.39628906 16.76171875 10.43945312 C23.38428532 10.76190387 23.38428532 10.76190387 28.796875 7.48046875 C29.19390625 6.66191406 29.5909375 5.84335938 30 5 C29.125 10.875 29.125 10.875 28 12 C25.78144736 12.08783542 23.56011504 12.10694609 21.33984375 12.09765625 C20.34314415 12.09553383 20.34314415 12.09553383 19.3263092 12.09336853 C17.19666101 12.08775518 15.06711661 12.07520054 12.9375 12.0625 C11.49674631 12.05748671 10.05599097 12.05292351 8.61523438 12.04882812 C5.07678898 12.03778145 1.53840461 12.02050792 -2 12 C-1.34 8.04 -0.68 4.08 0 0 Z " fill="#AD7585" transform="translate(394,133)"/>
<path d="M0 0 C0.33 0 0.66 0 1 0 C1.738041 17.85649203 1.738041 17.85649203 -3 26 C-3.33 26 -3.66 26 -4 26 C-3.38641858 17.19828026 -1.70450615 8.64045258 0 0 Z " fill="#F2C55A" transform="translate(560,31)"/>
<path d="M0 0 C0.33 0 0.66 0 1 0 C1.0276619 1.49988961 1.0466861 2.99993869 1.0625 4.5 C1.07410156 5.3353125 1.08570313 6.170625 1.09765625 7.03125 C0.9768495 10.70377528 0.45576708 14.35386334 0 18 C7.92 18.33 15.84 18.66 24 19 C24 19.33 24 19.66 24 20 C14.76 20 5.52 20 -4 20 C-3.34 19.67 -2.68 19.34 -2 19 C-2.02320313 18.38253906 -2.04640625 17.76507813 -2.0703125 17.12890625 C-2.19833108 11.12117697 -1.56840747 5.79750618 0 0 Z " fill="#631129" transform="translate(397,124)"/>
<path d="M0 0 C9.57 0 19.14 0 29 0 C30.27351308 2.54702616 29.80191925 3.4282945 29.0625 6.125 C28.86785156 6.84945312 28.67320312 7.57390625 28.47265625 8.3203125 C28.31667969 8.87460937 28.16070313 9.42890625 28 10 C26 7 26 7 25.5625 4.875 C25.376875 4.25625 25.19125 3.6375 25 3 C22.0804957 2.0268319 19.94555049 1.8070454 16.89453125 1.68359375 C15.42016602 1.62075195 15.42016602 1.62075195 13.91601562 1.55664062 C12.89185547 1.51732422 11.86769531 1.47800781 10.8125 1.4375 C9.77673828 1.39431641 8.74097656 1.35113281 7.67382812 1.30664062 C5.1160181 1.20055634 2.55811155 1.09849854 0 1 C0 0.67 0 0.34 0 0 Z " fill="#AC7888" transform="translate(506,30)"/>
<path d="M0 0 C2.2890625 0.16015625 2.2890625 0.16015625 5 1 C6.8359375 3.43359375 6.8359375 3.43359375 8.375 6.4375 C8.89835937 7.42621094 9.42171875 8.41492188 9.9609375 9.43359375 C10.30382812 10.28050781 10.64671875 11.12742187 11 12 C10.67 12.66 10.34 13.32 10 14 C9.34 13.67 8.68 13.34 8 13 C8 12.34 8 11.68 8 11 C7.4225 10.79375 6.845 10.5875 6.25 10.375 C3.136873 8.4725335 1.79260061 6.13705107 0 3 C0 2.01 0 1.02 0 0 Z " fill="#8E2C45" transform="translate(471,76)"/>
<path d="M0 0 C0.33 0 0.66 0 1 0 C1.05449838 1.72880982 1.09301688 3.45812712 1.125 5.1875 C1.14820313 6.15042969 1.17140625 7.11335938 1.1953125 8.10546875 C0.98809633 11.17641234 0.2529126 13.20779477 -1 16 C-1.55445837 17.59979042 -2.09678756 19.20385302 -2.625 20.8125 C-2.88539063 21.60269531 -3.14578125 22.39289063 -3.4140625 23.20703125 C-3.60742188 23.79871094 -3.80078125 24.39039062 -4 25 C-4.99830483 21.85699025 -4.95833041 19.73171459 -4.2578125 16.5234375 C-4.07863281 15.688125 -3.89945313 14.8528125 -3.71484375 13.9921875 C-3.52019531 13.12851563 -3.32554687 12.26484375 -3.125 11.375 C-2.93808594 10.50359375 -2.75117187 9.6321875 -2.55859375 8.734375 C-1.15743046 2.31486092 -1.15743046 2.31486092 0 0 Z " fill="#DFAD33" transform="translate(550,89)"/>
<path d="M0 0 C0.33 0 0.66 0 1 0 C0.35963063 6.62613779 -0.70971164 13.04712709 -2.0625 19.5625 C-2.24876953 20.47580078 -2.43503906 21.38910156 -2.62695312 22.33007812 C-3.08108103 24.55414045 -3.538813 26.77739276 -4 29 C-4.33 29 -4.66 29 -5 29 C-6.08360869 22.93179132 -5.79074734 18.89893243 -4 13 C-3.34 13 -2.68 13 -2 13 C-2.20625 11.906875 -2.4125 10.81375 -2.625 9.6875 C-3 6 -3 6 -1 3 C-0.67 2.01 -0.34 1.02 0 0 Z " fill="#507B9D" transform="translate(195,38)"/>
<path d="M0 0 C1.98 0 3.96 0 6 0 C6 2.31 6 4.62 6 7 C5.401875 7.268125 4.80375 7.53625 4.1875 7.8125 C2.01683117 8.99086308 0.69182788 10.23060981 -1 12 C-1.02712066 10.56260487 -1.04645067 9.12506137 -1.0625 7.6875 C-1.07410156 6.88699219 -1.08570313 6.08648437 -1.09765625 5.26171875 C-1 3 -1 3 0 0 Z " fill="#065B68" transform="translate(49,32)"/>
<path d="M0 0 C1.89796206 3.38152192 2.80223042 6.73436548 3.6875 10.5 C3.95949219 11.6240625 4.23148437 12.748125 4.51171875 13.90625 C4.9634571 16.7684642 4.97784414 18.32241337 4 21 C0.07260562 16.09075703 -0.43177893 13.26079448 0 7 C-0.66 6.67 -1.32 6.34 -2 6 C-1.34 4.02 -0.68 2.04 0 0 Z " fill="#6A576B" transform="translate(374,110)"/>
<path d="M0 0 C0.33 0 0.66 0 1 0 C1 3.63 1 7.26 1 11 C0.34 11 -0.32 11 -1 11 C-0.98839844 11.67546875 -0.97679687 12.3509375 -0.96484375 13.046875 C-0.95130859 14.38492188 -0.95130859 14.38492188 -0.9375 15.75 C-0.92589844 16.63171875 -0.91429687 17.5134375 -0.90234375 18.421875 C-0.99173802 20.7818838 -1.33087179 22.74498524 -2 25 C-2.66 25 -3.32 25 -4 25 C-4 26.98 -4 28.96 -4 31 C-4.33 31 -4.66 31 -5 31 C-5.24275126 25.1896312 -4.33975631 20.03205218 -3.0625 14.375 C-2.69914759 12.71616142 -2.33586429 11.0573077 -1.97265625 9.3984375 C-1.80266113 8.63370117 -1.63266602 7.86896484 -1.45751953 7.08105469 C-0.93991581 4.72670348 -0.45880995 2.36649343 0 0 Z " fill="#629CAB" transform="translate(37,82)"/>
<path d="M0 0 C0.33 0.99 0.66 1.98 1 3 C1.66 3 2.32 3 3 3 C3.33 2.34 3.66 1.68 4 1 C3.6889315 3.06271639 3.37608484 5.12516466 3.0625 7.1875 C2.88847656 8.33605469 2.71445313 9.48460937 2.53515625 10.66796875 C2.08620687 13.46325212 1.57917838 16.22933586 1 19 C0.67 19 0.34 19 0 19 C0 17.35 0 15.7 0 14 C-0.66 13.67 -1.32 13.34 -2 13 C-1.34 12.67 -0.68 12.34 0 12 C0.33 11.01 0.66 10.02 1 9 C0.01 9.33 -0.98 9.66 -2 10 C-2.33 8.35 -2.66 6.7 -3 5 C-2.34 4.67 -1.68 4.34 -1 4 C-0.34786708 1.97536745 -0.34786708 1.97536745 0 0 Z " fill="#386389" transform="translate(238,125)"/>
<path d="M0 0 C1.89401861 1.6469727 2.89938525 2.58496417 3.5 5.0625 C3.87267251 7.39687193 3.87267251 7.39687193 7 9 C8.1875 12.625 8.1875 12.625 9 16 C8.01 16 7.02 16 6 16 C4.140625 13.515625 4.140625 13.515625 2.25 10.25 C1.61578125 9.18265625 0.9815625 8.1153125 0.328125 7.015625 C-1 4 -1 4 -0.703125 1.609375 C-0.47109375 1.07828125 -0.2390625 0.5471875 0 0 Z " fill="#702937" transform="translate(461,107)"/>
<path d="M0 0 C0.66 0 1.32 0 2 0 C2.36801906 7.93285519 1.77476512 14.5345605 -1 22 C-1.66 21.67 -2.32 21.34 -3 21 C-2.505 19.515 -2.505 19.515 -2 18 C-1.79703254 15.49673462 -1.62892803 13.00693389 -1.5 10.5 C-1.13513514 3.40540541 -1.13513514 3.40540541 0 0 Z " fill="#A4611C" transform="translate(713,32)"/>
<path d="M0 0 C0 4.01094227 -1.76100999 5.74328725 -4 9 C-4.33 9.99 -4.66 10.98 -5 12 C-5.66 12 -6.32 12 -7 12 C-7 13.32 -7 14.64 -7 16 C-7.99 16.33 -8.98 16.66 -10 17 C-10.66 16.67 -11.32 16.34 -12 16 C-12 15.34 -12 14.68 -12 14 C-11.34 13.67 -10.68 13.34 -10 13 C-8.45066563 10.52991835 -7.05122407 7.99251234 -5.6328125 5.4453125 C-3.98405416 2.97611939 -2.46668131 1.61241938 0 0 Z " fill="#483452" transform="translate(295,119)"/>
<path d="M0 0 C0.66 0 1.32 0 2 0 C1.67 5.28 1.34 10.56 1 16 C1.99 16.33 2.98 16.66 4 17 C3.21625 16.814375 2.4325 16.62875 1.625 16.4375 C-0.97089775 15.74037734 -0.97089775 15.74037734 -3 17 C-2.48517081 11.147205 -1.54642808 5.6702363 0 0 Z " fill="#33727F" transform="translate(47,37)"/>
<path d="M0 0 C0.66 0 1.32 0 2 0 C1.67 1.65 1.34 3.3 1 5 C1.66 5 2.32 5 3 5 C3 7.31 3 9.62 3 12 C2.67 11.01 2.34 10.02 2 9 C1.34 9 0.68 9 0 9 C0.33 9.66 0.66 10.32 1 11 C1.039992 12.99960012 1.04346799 15.00047242 1 17 C-0.91302307 13.73386305 -1.35674661 11.00554752 -1.625 7.25 C-1.69976562 6.26515625 -1.77453125 5.2803125 -1.8515625 4.265625 C-1.90054687 3.51796875 -1.94953125 2.7703125 -2 2 C-1.34 2 -0.68 2 0 2 C0 1.34 0 0.68 0 0 Z " fill="#5E5162" transform="translate(341,92)"/>
<path d="M0 0 C0.33 1.32 0.66 2.64 1 4 C1.66 4 2.32 4 3 4 C3 4.66 3 5.32 3 6 C1.68 5.67 0.36 5.34 -1 5 C-0.67 6.32 -0.34 7.64 0 9 C-1.65 9.33 -3.3 9.66 -5 10 C-5 11.32 -5 12.64 -5 14 C-5.99 14 -6.98 14 -8 14 C-6.6744419 10.37723685 -5.05653045 7.36494652 -2.875 4.1875 C-2.33617187 3.39730469 -1.79734375 2.60710937 -1.2421875 1.79296875 C-0.83226562 1.20128906 -0.42234375 0.60960938 0 0 Z " fill="#615264" transform="translate(291,79)"/>
<path d="M0 0 C0.33 0 0.66 0 1 0 C1 3.3 1 6.6 1 10 C0.34 10 -0.32 10 -1 10 C-1.06058594 11.04800781 -1.12117188 12.09601563 -1.18359375 13.17578125 C-1.26801738 14.55470048 -1.35266447 15.93360605 -1.4375 17.3125 C-1.47681641 18.00279297 -1.51613281 18.69308594 -1.55664062 19.40429688 C-1.74927415 22.47161535 -2.02322717 25.06968152 -3 28 C-3.66 28 -4.32 28 -5 28 C-4.37922374 21.52432348 -3.33183542 15.28837757 -1.9375 8.9375 C-1.75123047 8.07189453 -1.56496094 7.20628906 -1.37304688 6.31445312 C-0.91933733 4.20877549 -0.46023996 2.10425993 0 0 Z " fill="#AA697B" transform="translate(410,58)"/>
<path d="M0 0 C2.14213346 6.42640038 -0.60515446 14.84182576 -3 21 C-3.33 21 -3.66 21 -4 21 C-4.22262303 14.2718373 -3.95021536 8.46008837 -2 2 C-1.34 2 -0.68 2 0 2 C0 1.34 0 0.68 0 0 Z " fill="#DBAB69" transform="translate(660,111)"/>
<path d="M0 0 C0.66 0.33 1.32 0.66 2 1 C1.43393721 5.69023454 0.81462495 10.34500026 0 15 C-0.99 15 -1.98 15 -3 15 C-3 13.02 -3 11.04 -3 9 C-2.34 9 -1.68 9 -1 9 C-1.20625 8.071875 -1.4125 7.14375 -1.625 6.1875 C-2 3 -2 3 0 0 Z " fill="#0E4970" transform="translate(156,90)"/>
<path d="M0 0 C0.99 0.66 1.98 1.32 3 2 C-0.3 7.28 -3.6 12.56 -7 18 C-7.33 16.68 -7.66 15.36 -8 14 C-7.34 14 -6.68 14 -6 14 C-5.87625 13.278125 -5.7525 12.55625 -5.625 11.8125 C-5.0095069 9.04278106 -4.11555626 6.6029646 -3 4 C-2.34 4 -1.68 4 -1 4 C-0.67 2.68 -0.34 1.36 0 0 Z " fill="#685C6F" transform="translate(304,105)"/>
<path d="M0 0 C2 4 2 4 2 6 C1.34 6 0.68 6 0 6 C0 6.66 0 7.32 0 8 C9.57 8 19.14 8 29 8 C29 8.33 29 8.66 29 9 C19.1 9 9.2 9 -1 9 C-0.67 6.03 -0.34 3.06 0 0 Z " fill="#BDDDE5" transform="translate(26,136)"/>
<path d="M0 0 C0.33 0 0.66 0 1 0 C1.09765625 6.15234375 1.09765625 6.15234375 1 8 C0.67 8.33 0.34 8.66 0 9 C-0.04092937 11.33297433 -0.04241723 13.66705225 0 16 C1.98 16.33 3.96 16.66 6 17 C5.67 17.66 5.34 18.32 5 19 C-1.75 19.125 -1.75 19.125 -4 18 C-4 17.34 -4 16.68 -4 16 C-3.34 16 -2.68 16 -2 16 C-2.04125 14.845 -2.0825 13.69 -2.125 12.5 C-2.14087433 8.05518699 -1.21793105 4.26275869 0 0 Z " fill="#E5820B" transform="translate(629,121)"/>
<path d="M0 0 C1.00693162 3.12179408 0.97289724 4.98969669 0.00390625 8.109375 C-0.22490234 8.86347656 -0.45371094 9.61757812 -0.68945312 10.39453125 C-0.93630859 11.17183594 -1.18316406 11.94914062 -1.4375 12.75 C-1.68048828 13.54277344 -1.92347656 14.33554688 -2.17382812 15.15234375 C-2.77354195 17.10435346 -3.38558121 19.05256883 -4 21 C-5.67386327 14.77729243 -5.1793262 8.51945626 -1.9375 2.875 C-0.9784375 1.451875 -0.9784375 1.451875 0 0 Z " fill="#DA9C46" transform="translate(630,114)"/>
<path d="M0 0 C0.66 0.66 1.32 1.32 2 2 C1.6442194 5.37991574 0.64284201 8.04288438 -1 11 C-2.65 10.67 -4.3 10.34 -6 10 C-4.34832443 6.4213696 -2.21713508 3.25179812 0 0 Z " fill="#624F65" transform="translate(303,61)"/>
<path d="M0 0 C1.32 0.33 2.64 0.66 4 1 C4 5.62 4 10.24 4 15 C2.68 15 1.36 15 0 15 C0 15.99 0 16.98 0 18 C-0.66 18 -1.32 18 -2 18 C-1.69320312 17.30519531 -1.38640625 16.61039063 -1.0703125 15.89453125 C0.06900464 12.81338527 0.62598909 9.93107092 1.125 6.6875 C1.29257813 5.61886719 1.46015625 4.55023438 1.6328125 3.44921875 C1.75398438 2.64097656 1.87515625 1.83273438 2 1 C1.34 0.67 0.68 0.34 0 0 Z " fill="#508C9B" transform="translate(117,58)"/>
<path d="M0 0 C1.32 0.33 2.64 0.66 4 1 C3.53802187 5.15780314 3.14081415 7.23608355 0 10 C-1.17574711 12.09989652 -1.17574711 12.09989652 -2 14 C-3.25 11.3125 -3.25 11.3125 -4 8 C-2.125 5.3125 -2.125 5.3125 0 3 C0 2.01 0 1.02 0 0 Z " fill="#453051" transform="translate(299,105)"/>
<path d="M0 0 C0.33 0 0.66 0 1 0 C1 5.94 1 11.88 1 18 C-0.32 17.67 -1.64 17.34 -3 17 C-2.25339288 11.27601207 -1.17122859 5.65146223 0 0 Z " fill="#9A4457" transform="translate(416,31)"/>
<path d="M0 0 C0.33 0 0.66 0 1 0 C1.50546036 2.08201528 2.00416835 4.16567067 2.5 6.25 C2.7784375 7.41015625 3.056875 8.5703125 3.34375 9.765625 C4 13 4 13 4 17 C3.34 17 2.68 17 2 17 C1.67 14.36 1.34 11.72 1 9 C0.01 8.67 -0.98 8.34 -2 8 C-2 6.68 -2 5.36 -2 4 C-1.34 4 -0.68 4 0 4 C0 2.68 0 1.36 0 0 Z " fill="#5F5163" transform="translate(367,80)"/>
<path d="M0 0 C0.66 0 1.32 0 2 0 C2.2358396 5.77807024 1.86783046 10.51324804 0 16 C-1.09658936 12.71023192 -0.79953138 11.28696233 0 8 C-0.66 8 -1.32 8 -2 8 C-2.33 8.99 -2.66 9.98 -3 11 C-2.32829194 7.1936543 -1.27253436 3.64793184 0 0 Z " fill="#DA9C48" transform="translate(666,73)"/>
<path d="M0 0 C0.66 0 1.32 0 2 0 C2 1.32 2 2.64 2 4 C4.64 4 7.28 4 10 4 C10.33 4.66 10.66 5.32 11 6 C9.39679026 6.19551338 7.79237014 6.38111983 6.1875 6.5625 C5.29417969 6.66691406 4.40085938 6.77132812 3.48046875 6.87890625 C1 7 1 7 -2 6 C-1.49396008 3.83125748 -1.00016187 2.00032373 0 0 Z " fill="#3E556E" transform="translate(145,138)"/>
<path d="M0 0 C0.66 0.33 1.32 0.66 2 1 C2 2.65 2 4.3 2 6 C-2.3164922 6.76173392 -5.74433453 7.16063604 -10 6 C-10 5.67 -10 5.34 -10 5 C-6.535 4.505 -6.535 4.505 -3 4 C-3.66 3.34 -4.32 2.68 -5 2 C-2.625 0.9375 -2.625 0.9375 0 0 Z " fill="#453049" transform="translate(379,136)"/>
<path d="M0 0 C0.33 0 0.66 0 1 0 C1.020625 1.093125 1.04125 2.18625 1.0625 3.3125 C1.56114043 6.95732337 1.56114043 6.95732337 3.625 8.1328125 C5.78223035 9.06424734 5.78223035 9.06424734 9 10 C9 10.33 9 10.66 9 11 C4.545 11.495 4.545 11.495 0 12 C-2.21538462 4.61538462 -2.21538462 4.61538462 -1.125 1.5 C-0.75375 1.005 -0.3825 0.51 0 0 Z " fill="#0F6272" transform="translate(29,131)"/>
<path d="M0 0 C0.66 0.33 1.32 0.66 2 1 C2.28875 1.928125 2.5775 2.85625 2.875 3.8125 C4.06696786 7.18974227 5.32956672 8.68562449 8 11 C7.67 11.66 7.34 12.32 7 13 C5.68 12.67 4.36 12.34 3 12 C3 10.68 3 9.36 3 8 C2.01 8.33 1.02 8.66 0 9 C-0.66 8.34 -1.32 7.68 -2 7 C-1.67 6.21625 -1.34 5.4325 -1 4.625 C0.11866511 2.15667503 0.11866511 2.15667503 0 0 Z " fill="#970D30" transform="translate(456,49)"/>
<path d="M0 0 C7.59 0 15.18 0 23 0 C23 0.33 23 0.66 23 1 C12.605 1.495 12.605 1.495 2 2 C1.67 3.98 1.34 5.96 1 8 C0.67 8 0.34 8 0 8 C0 5.36 0 2.72 0 0 Z " fill="#69142B" transform="translate(505,31)"/>
<path d="M0 0 C0.66 0 1.32 0 2 0 C2.33 2.64 2.66 5.28 3 8 C2.67 7.34 2.34 6.68 2 6 C1.01 6.495 1.01 6.495 0 7 C-2.88370333 7.07194869 -5.74239664 7.09291708 -8.625 7.0625 C-9.42679687 7.05798828 -10.22859375 7.05347656 -11.0546875 7.04882812 C-13.03649006 7.03703168 -15.01825433 7.01909605 -17 7 C-17 6.67 -17 6.34 -17 6 C-11.31302429 5.08602176 -6.68697571 5.08602176 -1 6 C-0.67 4.02 -0.34 2.04 0 0 Z " fill="#45324A" transform="translate(281,136)"/>
<path d="M0 0 C3.5682233 5.35233495 4.32665309 11.63026469 4 18 C4.66 18 5.32 18 6 18 C5.67 20.64 5.34 23.28 5 26 C4.67 26 4.34 26 4 26 C3.32754163 22.41772843 2.66304461 18.8340249 2 15.25 C1.80921875 14.23421875 1.6184375 13.2184375 1.421875 12.171875 C1.15117187 10.70234375 1.15117187 10.70234375 0.875 9.203125 C0.70742188 8.30239258 0.53984375 7.40166016 0.3671875 6.47363281 C0 4 0 4 0 0 Z " fill="#7B6F7F" transform="translate(334,68)"/>
<path d="M0 0 C0.33 0 0.66 0 1 0 C1.33 3.63 1.66 7.26 2 11 C-0.475 12.485 -0.475 12.485 -3 14 C-2.67 11.03 -2.34 8.06 -2 5 C-1.34 5 -0.68 5 0 5 C0 3.35 0 1.7 0 0 Z " fill="#124A71" transform="translate(164,52)"/>
<path d="M0 0 C1.89875566 3.20415018 2 5.33408727 2 9 C2.92745649 11.73774618 2.92745649 11.73774618 4 14 C2.68 14 1.36 14 0 14 C-0.66 11.03 -1.32 8.06 -2 5 C-1.34 5 -0.68 5 0 5 C0 3.35 0 1.7 0 0 Z " fill="#4A334F" transform="translate(371,107)"/>
<path d="M0 0 C1.04005702 3.38018531 1.08004482 6.4780279 1 10 C0.67 10 0.34 10 0 10 C-0.33 12.64 -0.66 15.28 -1 18 C-1.66 18 -2.32 18 -3 18 C-2.88566637 15.74943278 -2.75813564 13.49953326 -2.625 11.25 C-2.55539063 9.99703125 -2.48578125 8.7440625 -2.4140625 7.453125 C-2.04676696 4.39001879 -1.60288714 2.58025734 0 0 Z " fill="#124A76" transform="translate(189,57)"/>
<path d="M0 0 C0.99 0 1.98 0 3 0 C3 1.65 3 3.3 3 5 C-3.27 5 -9.54 5 -16 5 C-16 4.67 -16 4.34 -16 4 C-8.08 3.505 -8.08 3.505 0 3 C0 2.01 0 1.02 0 0 Z " fill="#1E3455" transform="translate(235,139)"/>
<path d="M0 0 C0.33 1.98 0.66 3.96 1 6 C-0.32 6 -1.64 6 -3 6 C-3.33 7.32 -3.66 8.64 -4 10 C-4.6875 6.6875 -4.6875 6.6875 -5 3 C-3.42599605 0.67647035 -2.82844233 0 0 0 Z " fill="#483A52" transform="translate(351,122)"/>
<path d="M0 0 C1.00109515 3.31070838 1.10356134 6.30084769 1.0625 9.75 C1.05347656 10.73484375 1.04445312 11.7196875 1.03515625 12.734375 C1.02355469 13.48203125 1.01195312 14.2296875 1 15 C0.34 15 -0.32 15 -1 15 C-1.66 15.66 -2.32 16.32 -3 17 C-2.36934845 11.2190275 -1.34844868 5.6556294 0 0 Z " fill="#4D6F8F" transform="translate(157,76)"/>
<path d="M0 0 C1.65 0 3.3 0 5 0 C5 0.99 5 1.98 5 3 C4.34 3 3.68 3 3 3 C2.67 4.32 2.34 5.64 2 7 C1.67 6.67 1.34 6.34 1 6 C0.67 6.66 0.34 7.32 0 8 C-0.99 8.33 -1.98 8.66 -3 9 C-2.01 6.03 -1.02 3.06 0 0 Z " fill="#43344B" transform="translate(325,31)"/>
<path d="M0 0 C-0.33 1.32 -0.66 2.64 -1 4 C-3.64 4 -6.28 4 -9 4 C-8.67 2.68 -8.34 1.36 -8 0 C-2.25 -1.125 -2.25 -1.125 0 0 Z " fill="#E9AA0B" transform="translate(569,138)"/>
<path d="M0 0 C1.27433584 2.54867169 1.27570202 4.17405433 1 7 C-1.30266844 10.39340612 -2.63987616 10.12797523 -7 11 C-4.69 7.37 -2.38 3.74 0 0 Z " fill="#5E4A60" transform="translate(269,113)"/>
<path d="M0 0 C0.66 0.33 1.32 0.66 2 1 C2 3.31 2 5.62 2 8 C1.67 8 1.34 8 1 8 C0.71125 9.134375 0.4225 10.26875 0.125 11.4375 C-0.24625 12.613125 -0.6175 13.78875 -1 15 C-1.99 15.495 -1.99 15.495 -3 16 C-3.26345618 11.65297305 -2.2793073 8.13893538 -1 4 C-0.65864073 2.66869885 -0.32074044 1.33641852 0 0 Z " fill="#890E30" transform="translate(431,85)"/>
<path d="M0 0 C0.33 0 0.66 0 1 0 C1 5.28 1 10.56 1 16 C0.34 16.33 -0.32 16.66 -1 17 C-2.0748291 10.72532201 -1.88341198 6.09339169 0 0 Z " fill="#811732" transform="translate(405,87)"/>
<path d="M0 0 C0.33 0 0.66 0 1 0 C0.33644956 6.74609618 -0.71865793 13.34448534 -2 20 C-2.33 20 -2.66 20 -3 20 C-3.55353075 6.3667426 -3.55353075 6.3667426 0 0 Z " fill="#E6BE82" transform="translate(664,91)"/>
<path d="M0 0 C1.38435015 3.87618043 0.79093466 7.52026647 0.25 11.5 C0.01023437 13.46453125 0.01023437 13.46453125 -0.234375 15.46875 C-0.96998396 18.86155865 -1.67426775 20.49536527 -4 23 C-3.20736384 15.23216563 -1.58110513 7.6370361 0 0 Z " fill="#F4D596" transform="translate(632,95)"/>
<path d="M0 0 C1.30211046 3.90633137 0.47812346 6.19538173 -0.4375 10.1875 C-0.72496094 11.45980469 -1.01242188 12.73210937 -1.30859375 14.04296875 C-1.53675781 15.01878906 -1.76492187 15.99460937 -2 17 C-2.33 17 -2.66 17 -3 17 C-4.20126412 11.35405862 -4.00995423 6.47741912 -2 1 C-1.34 0.67 -0.68 0.34 0 0 Z " fill="#51919F" transform="translate(63,106)"/>
<path d="M0 0 C0.66 0 1.32 0 2 0 C0.77036367 3.68890899 -1.03683203 6.64361605 -3 10 C-3.99 9.67 -4.98 9.34 -6 9 C-5.34 8.67 -4.68 8.34 -4 8 C-4.33 6.35 -4.66 4.7 -5 3 C-4.34 2.67 -3.68 2.34 -3 2 C-2.34 2.33 -1.68 2.66 -1 3 C-0.67 2.01 -0.34 1.02 0 0 Z " fill="#493255" transform="translate(319,79)"/>
<path d="M0 0 C0.66 0 1.32 0 2 0 C1.58578031 4.83256305 -0.46413986 6.82679218 -4 10 C-4.33 8.02 -4.66 6.04 -5 4 C-3.35 3.34 -1.7 2.68 0 2 C0 1.34 0 0.68 0 0 Z " fill="#3A8896" transform="translate(141,82)"/>
<path d="M0 0 C2.97 0 5.94 0 9 0 C8.67 0.99 8.34 1.98 8 3 C6.68 3 5.36 3 4 3 C3.67 3.99 3.34 4.98 3 6 C2.34 6 1.68 6 1 6 C0.67 4.02 0.34 2.04 0 0 Z " fill="#104E6A" transform="translate(167,31)"/>
<path d="M0 0 C0.33 0 0.66 0 1 0 C1.05429959 1.74965358 1.09292823 3.49979787 1.125 5.25 C1.14820313 6.22453125 1.17140625 7.1990625 1.1953125 8.203125 C0.99645953 11.05069951 0.55438946 12.63037132 -1 15 C-1.99 15.495 -1.99 15.495 -3 16 C-3.18501977 11.92956503 -2.89096914 9.55947131 -1 6 C-0.61709538 4.00889599 -0.27395385 2.00899487 0 0 Z " fill="#CB781F" transform="translate(655,124)"/>
<path d="M0 0 C0.33 0 0.66 0 1 0 C0.125 7.875 0.125 7.875 -1 9 C-1.28318854 11.84087552 -1.44850213 14.68165215 -1.62109375 17.53125 C-1.74613281 18.3459375 -1.87117187 19.160625 -2 20 C-2.66 20.33 -3.32 20.66 -4 21 C-3.40546697 6.21867882 -3.40546697 6.21867882 0 0 Z " fill="#EAA817" transform="translate(547,110)"/>
<path d="M0 0 C0.33 0 0.66 0 1 0 C1.38095238 10.70899471 1.38095238 10.70899471 -1 16 C-1.66 16.66 -2.32 17.32 -3 18 C-2.32418477 11.91766294 -1.26361972 5.98685848 0 0 Z " fill="#A65B6E" transform="translate(400,105)"/>
<path d="M0 0 C0.33 0 0.66 0 1 0 C1.23433319 5.74116324 1.02996747 10.5867534 -1 16 C-1.66 16.33 -2.32 16.66 -3 17 C-2.36934845 11.2190275 -1.34844868 5.6556294 0 0 Z " fill="#954E5D" transform="translate(500,54)"/>
<path d="M0 0 C0.66 0 1.32 0 2 0 C2.33 0.66 2.66 1.32 3 2 C8.28 2 13.56 2 19 2 C19 2.66 19 3.32 19 4 C13.06 4 7.12 4 1 4 C0.67 4.66 0.34 5.32 0 6 C0 4.02 0 2.04 0 0 Z " fill="#3E304C" transform="translate(349,138)"/>
<path d="M0 0 C0.66 0 1.32 0 2 0 C2.3690205 9.41002278 2.3690205 9.41002278 0 14 C-0.33 14 -0.66 14 -1 14 C-1.08333357 9.1666528 -0.95261487 4.76307437 0 0 Z " fill="#D38019" transform="translate(632,99)"/>
<path d="M0 0 C0.33 0 0.66 0 1 0 C1.22577402 5.4185766 0.46670113 9.77487721 -1 15 C-1.33 15 -1.66 15 -2 15 C-2.05406122 13.06280622 -2.09282025 11.12518079 -2.125 9.1875 C-2.14820313 8.10855469 -2.17140625 7.02960938 -2.1953125 5.91796875 C-2 3 -2 3 0 0 Z " fill="#893B51" transform="translate(523,81)"/>
<path d="M0 0 C3.50281042 4.67041389 3.5344992 6.41399038 4 12 C3.34 12 2.68 12 2 12 C1.34 12.66 0.68 13.32 0 14 C0 9.38 0 4.76 0 0 Z " fill="#614C66" transform="translate(360,55)"/>
<path d="M0 0 C1 3 1 3 1 7 C-1 8.75 -1 8.75 -3 10 C-3.99928333 7.301935 -4.03624754 6.11989571 -3.1875 3.3125 C-2 1 -2 1 0 0 Z " fill="#4A364E" transform="translate(311,51)"/>
<path d="M0 0 C2.21585882 2.21585882 2.40438724 3.02193622 3 6 C3.185625 6.9075 3.37125 7.815 3.5625 8.75 C3.706875 9.4925 3.85125 10.235 4 11 C3.01 11 2.02 11 1 11 C-1.08997373 7.60379269 -1.2632246 4.94836905 -1 1 C-0.67 0.67 -0.34 0.34 0 0 Z " fill="#980731" transform="translate(449,35)"/>
<path d="M0 0 C0.99 0 1.98 0 3 0 C2.4375 3.375 2.4375 3.375 1 7 C-2.625 8.4375 -2.625 8.4375 -6 9 C-4.84334866 5.53004599 -3.81924446 5.11443335 -1 3 C-0.67 2.01 -0.34 1.02 0 0 Z " fill="#462A47" transform="translate(262,127)"/>
<path d="M0 0 C0.66 0.33 1.32 0.66 2 1 C1.46884894 5.51478398 -0.36620292 8.34666857 -3 12 C-3.33 11.01 -3.66 10.02 -4 9 C-4.66 9 -5.32 9 -6 9 C-5.67 8.34 -5.34 7.68 -5 7 C-4.34 7.33 -3.68 7.66 -3 8 C-1.92474806 5.34771188 -0.90543849 2.71631546 0 0 Z " fill="#61506C" transform="translate(319,81)"/>
<path d="M0 0 C0.33 0 0.66 0 1 0 C1.2358396 5.77807024 0.86783046 10.51324804 -1 16 C-1.33 16 -1.66 16 -2 16 C-2.05423638 14.08364783 -2.09289963 12.16685075 -2.125 10.25 C-2.14820313 9.18265625 -2.17140625 8.1153125 -2.1953125 7.015625 C-2.00487687 4.07529894 -1.52670104 2.47638122 0 0 Z " fill="#124C76" transform="translate(185,77)"/>
<path d="M0 0 C0.33 0 0.66 0 1 0 C1.3152595 5.98993047 0.68219822 9.63560356 -2 15 C-3.44624813 12.10750374 -2.67381051 10.09128096 -2.125 6.9375 C-1.94195313 5.85339844 -1.75890625 4.76929687 -1.5703125 3.65234375 C-1 1 -1 1 0 0 Z " fill="#DEA416" transform="translate(580,81)"/>
<path d="M0 0 C1.13732426 3.40401948 0.83989957 5.77456664 0.0625 9.25 C-0.13214844 10.14203125 -0.32679687 11.0340625 -0.52734375 11.953125 C-0.68332031 12.62859375 -0.83929688 13.3040625 -1 14 C-1.33 14 -1.66 14 -2 14 C-2.22245393 12.39773045 -2.42746669 10.79303233 -2.625 9.1875 C-2.74101563 8.29417969 -2.85703125 7.40085938 -2.9765625 6.48046875 C-3 4 -3 4 -1 1 C-0.67 0.67 -0.34 0.34 0 0 Z " fill="#518897" transform="translate(58,129)"/>
<path d="M0 0 C0.33 0 0.66 0 1 0 C1.12086218 6.43255401 0.82351864 12.61773055 0 19 C-0.66 19 -1.32 19 -2 19 C-2.24991456 12.34949576 -1.73955334 6.43013467 0 0 Z " fill="#70152C" transform="translate(397,124)"/>
<path d="M0 0 C0.66 0 1.32 0 2 0 C1.67 3.3 1.34 6.6 1 10 C0.34 10 -0.32 10 -1 10 C-1.33 11.98 -1.66 13.96 -2 16 C-2.33 16 -2.66 16 -3 16 C-3.45496035 10.23716896 -1.79099852 5.39431697 0 0 Z " fill="#861132" transform="translate(527,57)"/>
<path d="M0 0 C1.32 0 2.64 0 4 0 C3.67 3.3 3.34 6.6 3 10 C2.34 9.67 1.68 9.34 1 9 C0.5859375 6.93359375 0.5859375 6.93359375 0.375 4.4375 C0.30023438 3.61121094 0.22546875 2.78492188 0.1484375 1.93359375 C0.09945312 1.29550781 0.05046875 0.65742187 0 0 Z " fill="#0E4367" transform="translate(192,32)"/>
<path d="M0 0 C0.66 0 1.32 0 2 0 C1.343621 4.48525648 0.29925791 8.66914029 -1 13 C-2.32 12.67 -3.64 12.34 -5 12 C-4.01 12 -3.02 12 -2 12 C-2.04125 10.948125 -2.0825 9.89625 -2.125 8.8125 C-2.00852125 5.25989827 -1.52791932 3.15133359 0 0 Z " fill="#E27F0C" transform="translate(653,127)"/>
<path d="M0 0 C0.99 0.33 1.98 0.66 3 1 C2.01 1.495 2.01 1.495 1 2 C1 3.65 1 5.3 1 7 C-0.98 7.66 -2.96 8.32 -5 9 C-3.7508258 5.54074837 -2.32472205 2.85306797 0 0 Z " fill="#5C4A5D" transform="translate(261,125)"/>
<path d="M0 0 C1.09266193 3.2779858 0.8361233 3.84131197 0 7 C-0.03786901 8.66623639 -0.04627845 10.33397597 0 12 C-0.66 12 -1.32 12 -2 12 C-3.125 4.25 -3.125 4.25 -2 2 C-1.34 2 -0.68 2 0 2 C0 1.34 0 0.68 0 0 Z " fill="#045F72" transform="translate(60,111)"/>
<path d="M0 0 C0.33 0.99 0.66 1.98 1 3 C1.66 3 2.32 3 3 3 C2.67 5.64 2.34 8.28 2 11 C4.97 11 7.94 11 11 11 C11 11.33 11 11.66 11 12 C7.7 12 4.4 12 1 12 C0.67 8.04 0.34 4.08 0 0 Z " fill="#7B9EBB" transform="translate(178,107)"/>
<path d="M0 0 C0.66 0.66 1.32 1.32 2 2 C1.96712417 4.72869407 1.43602229 7.2966618 1 10 C0.01 10 -0.98 10 -2 10 C-2 8.02 -2 6.04 -2 4 C-1.34 4 -0.68 4 0 4 C-0.33 3.01 -0.66 2.02 -1 1 C-0.67 0.67 -0.34 0.34 0 0 Z " fill="#0D6175" transform="translate(35,103)"/>
<path d="M0 0 C1.66666667 0 3.33333333 0 5 0 C5 2.64 5 5.28 5 8 C3 8 3 8 1.375 6.8125 C-0.42149467 4.44439338 -0.23521845 2.90102749 0 0 Z " fill="#9A0F32" transform="translate(442,74)"/>
<path d="M0 0 C0.33 0 0.66 0 1 0 C1.36517527 6.57315478 0.13619737 11.79485526 -2 18 C-3.51553092 14.02549507 -2.49888623 10.79518851 -1.5625 6.75 C-1.27503906 5.48671875 -0.98757813 4.2234375 -0.69140625 2.921875 C-0.46324219 1.95765625 -0.23507812 0.9934375 0 0 Z " fill="#F5D59D" transform="translate(639,63)"/>
<path d="M0 0 C0.33 0 0.66 0 1 0 C1.05423638 1.91635217 1.09289963 3.83314925 1.125 5.75 C1.14820313 6.81734375 1.17140625 7.8846875 1.1953125 8.984375 C1.00487687 11.92470106 0.52670104 13.52361878 -1 16 C-1.33 16 -1.66 16 -2 16 C-1.50130596 10.63108121 -0.97772468 5.30764827 0 0 Z " fill="#F5D588" transform="translate(558,41)"/>
<path d="M0 0 C0.66 0 1.32 0 2 0 C1.3125 3.375 1.3125 3.375 0 7 C-2.625 8.4375 -2.625 8.4375 -5 9 C-3.7580393 5.56072421 -2.44259716 2.74792181 0 0 Z " fill="#5F5265" transform="translate(323,31)"/>
<path d="M0 0 C2.97 0.495 2.97 0.495 6 1 C6.625 2.875 6.625 2.875 7 5 C6.34 5.66 5.68 6.32 5 7 C4.01 5.68 3.02 4.36 2 3 C1.34 3.99 0.68 4.98 0 6 C0 4.02 0 2.04 0 0 Z " fill="#B96B7E" transform="translate(436,72)"/>
<path d="M0 0 C1.95216435 3.90432869 2.50639991 6.72213252 3 11 C1.66666667 11 0.33333333 11 -1 11 C-0.67 7.37 -0.34 3.74 0 0 Z " fill="#992146" transform="translate(516,100)"/>
<path d="M0 0 C0.33 0 0.66 0 1 0 C0.63223832 6.30267439 -0.16625922 11.33251843 -3 17 C-4.14319652 13.64662354 -3.85351312 11.79106268 -2.625 8.5 C-1.59208711 5.6812097 -0.67838116 2.92635009 0 0 Z " fill="#BB7A26" transform="translate(665,81)"/>
<path d="M0 0 C0.33 0 0.66 0 1 0 C1.21192221 5.19209404 0.5912689 9.126739 -1 14 C-1.33 14 -1.66 14 -2 14 C-2.05437607 12.41705218 -2.09296271 10.83355744 -2.125 9.25 C-2.14820313 8.36828125 -2.17140625 7.4865625 -2.1953125 6.578125 C-1.99139502 3.8864142 -1.36551721 2.30095026 0 0 Z " fill="#F1D989" transform="translate(583,75)"/>
<path d="M0 0 C1.485 0.99 1.485 0.99 3 2 C2.67 4.64 2.34 7.28 2 10 C1.34 10 0.68 10 0 10 C0 6.7 0 3.4 0 0 Z " fill="#E4800B" transform="translate(642,55)"/>
<path d="M0 0 C0.99 0.33 1.98 0.66 3 1 C2.34 5.29 1.68 9.58 1 14 C0.67 14 0.34 14 0 14 C0 9.38 0 4.76 0 0 Z " fill="#A14C67" transform="translate(528,51)"/>
<path d="M0 0 C0.33 0 0.66 0 1 0 C2.32854177 5.9180497 1.66464729 8.77729131 -1 14 C-2.13732426 10.59598052 -1.83989957 8.22543336 -1.0625 4.75 C-0.86785156 3.85796875 -0.67320313 2.9659375 -0.47265625 2.046875 C-0.31667969 1.37140625 -0.16070313 0.6959375 0 0 Z " fill="#63A1AE" transform="translate(29,121)"/>
<path d="M0 0 C0.33 0 0.66 0 1 0 C1.33 2.64 1.66 5.28 2 8 C0.68 8 -0.64 8 -2 8 C-2 6.02 -2 4.04 -2 2 C-1.34 2 -0.68 2 0 2 C0 1.34 0 0.68 0 0 Z " fill="#F37900" transform="translate(636,97)"/>
<path d="M0 0 C0.66 0.66 1.32 1.32 2 2 C1.625 5.125 1.625 5.125 1 8 C0.01 8 -0.98 8 -2 8 C-1.125 1.125 -1.125 1.125 0 0 Z " fill="#921430" transform="translate(419,32)"/>
<path d="M0 0 C0.33 0 0.66 0 1 0 C1.08114106 1.77007714 1.13925505 3.54122098 1.1875 5.3125 C1.23970703 6.79169922 1.23970703 6.79169922 1.29296875 8.30078125 C1 11 1 11 -0.51171875 12.85546875 C-1.00285156 13.23316406 -1.49398437 13.61085937 -2 14 C-1.03644647 4.58997722 -1.03644647 4.58997722 0 0 Z " fill="#588099" transform="translate(148,117)"/>
<path d="M0 0 C-0.75 2.4375 -0.75 2.4375 -2 5 C-4.125 5.8125 -4.125 5.8125 -6 6 C-5.6875 4.125 -5.6875 4.125 -5 2 C-2 0 -2 0 0 0 Z " fill="#5D4E66" transform="translate(313,96)"/>
<path d="M0 0 C1.9955516 3.99110319 2.19546065 5.69986566 2 10 C1.01 10.33 0.02 10.66 -1 11 C-0.67 7.37 -0.34 3.74 0 0 Z " fill="#821532" transform="translate(409,68)"/>
<path d="M0 0 C0.33 1.32 0.66 2.64 1 4 C-1.31 4 -3.62 4 -6 4 C-6 3.01 -6 2.02 -6 1 C-4.02 0.67 -2.04 0.34 0 0 Z " fill="#E68419" transform="translate(711,46)"/>
<path d="M0 0 C0.33 0 0.66 0 1 0 C1.33 2.97 1.66 5.94 2 9 C1.34 9 0.68 9 0 9 C0 10.65 0 12.3 0 14 C-0.99 14.495 -0.99 14.495 -2 15 C-1.34 10.05 -0.68 5.1 0 0 Z " fill="#EDBB7F" transform="translate(605,34)"/>
<path d="M0 0 C0.99 0.99 1.98 1.98 3 3 C2.67 3.99 2.34 4.98 2 6 C1.01 6.33 0.02 6.66 -1 7 C-1.66 6.67 -2.32 6.34 -3 6 C-1.125 1.125 -1.125 1.125 0 0 Z " fill="#5B4B5F" transform="translate(315,43)"/>
<path d="M0 0 C0.99 0.33 1.98 0.66 3 1 C1.1875 3.5 1.1875 3.5 -1 6 C-1.99 6 -2.98 6 -4 6 C-3.6875 4.125 -3.6875 4.125 -3 2 C-2.01 1.34 -1.02 0.68 0 0 Z " fill="#413144" transform="translate(254,138)"/>
<path d="M0 0 C1.32 0.66 2.64 1.32 4 2 C2.1875 4 2.1875 4 0 6 C-0.99 6 -1.98 6 -3 6 C-1.125 1.125 -1.125 1.125 0 0 Z " fill="#66546B" transform="translate(280,96)"/>
<path d="M0 0 C2.31 0 4.62 0 7 0 C7 1.98 7 3.96 7 6 C6.01 6 5.02 6 4 6 C3.896875 5.360625 3.79375 4.72125 3.6875 4.0625 C3.460625 3.381875 3.23375 2.70125 3 2 C2.01 1.67 1.02 1.34 0 1 C0 0.67 0 0.34 0 0 Z " fill="#3C2B42" transform="translate(349,32)"/>
<path d="M0 0 C0.66 1.32 1.32 2.64 2 4 C0.125 5.0625 0.125 5.0625 -2 6 C-2.66 5.67 -3.32 5.34 -4 5 C-3.67 3.68 -3.34 2.36 -3 1 C-2.01 1.33 -1.02 1.66 0 2 C0 1.34 0 0.68 0 0 Z " fill="#085279" transform="translate(153,135)"/>
<path d="M0 0 C0.33 0 0.66 0 1 0 C1 2.64 1 5.28 1 8 C0.01 8.495 0.01 8.495 -1 9 C-1.33 6.69 -1.66 4.38 -2 2 C-1.34 2 -0.68 2 0 2 C0 1.34 0 0.68 0 0 Z " fill="#7F1C3B" transform="translate(515,117)"/>
<path d="M0 0 C2.32590854 3.63423209 2.16265833 6.77088331 2 11 C1.34 10.34 0.68 9.68 0 9 C0 7.68 0 6.36 0 5 C-0.66 5 -1.32 5 -2 5 C-2 4.34 -2 3.68 -2 3 C-1.34 3 -0.68 3 0 3 C0 2.01 0 1.02 0 0 Z " fill="#5C4A5D" transform="translate(372,102)"/>
<path d="M0 0 C0.99 0.66 1.98 1.32 3 2 C1.02 4.97 1.02 4.97 -1 8 C-1.66 6.68 -2.32 5.36 -3 4 C-2.34 4 -1.68 4 -1 4 C-0.67 2.68 -0.34 1.36 0 0 Z " fill="#5B5167" transform="translate(304,105)"/>
<path d="M0 0 C0.33 0.66 0.66 1.32 1 2 C0.01 2.33 -0.98 2.66 -2 3 C-1.67 3.66 -1.34 4.32 -1 5 C-3.97 4.67 -6.94 4.34 -10 4 C-6.66189518 2.33094759 -3.53842155 1.1258614 0 0 Z " fill="#5A9AA2" transform="translate(114,76)"/>
<path d="M0 0 C0.33 0 0.66 0 1 0 C0.67 3.63 0.34 7.26 0 11 C-2 9 -2 9 -2.01171875 7.08984375 C-1.11111111 1.11111111 -1.11111111 1.11111111 0 0 Z " fill="#944761" transform="translate(532,40)"/>
<path d="M0 0 C0.33 0 0.66 0 1 0 C1.33 2.97 1.66 5.94 2 9 C1.01 9.33 0.02 9.66 -1 10 C-1.33 8.68 -1.66 7.36 -2 6 C-1.34 6 -0.68 6 0 6 C0 4.02 0 2.04 0 0 Z " fill="#6C5A70" transform="translate(356,32)"/>
<path d="M0 0 C1.65 0 3.3 0 5 0 C5 1.65 5 3.3 5 5 C2.525 4.01 2.525 4.01 0 3 C0 2.01 0 1.02 0 0 Z " fill="#91092B" transform="translate(506,137)"/>
<path d="M0 0 C0.99 0 1.98 0 3 0 C2.67 2.97 2.34 5.94 2 9 C-0.29013653 5.5647952 -0.17842973 4.014669 0 0 Z " fill="#883E55" transform="translate(518,97)"/>
<path d="M0 0 C0.598125 0.350625 1.19625 0.70125 1.8125 1.0625 C1.8125 1.7225 1.8125 2.3825 1.8125 3.0625 C-0.1675 3.3925 -2.1475 3.7225 -4.1875 4.0625 C-4.5175 2.7425 -4.8475 1.4225 -5.1875 0.0625 C-2.1875 -0.9375 -2.1875 -0.9375 0 0 Z " fill="#952644" transform="translate(454.1875,89.9375)"/>
<path d="M0 0 C2 2 2 2 2 5 C1.34 5 0.68 5 0 5 C0 5.66 0 6.32 0 7 C-0.66 7 -1.32 7 -2 7 C-2 5.02 -2 3.04 -2 1 C-1.34 0.67 -0.68 0.34 0 0 Z " fill="#44374A" transform="translate(341,87)"/>
<path d="M0 0 C0.66 0 1.32 0 2 0 C1.67 2.97 1.34 5.94 1 9 C0.34 9 -0.32 9 -1 9 C-0.67 6.03 -0.34 3.06 0 0 Z " fill="#984B62" transform="translate(406,77)"/>
<path d="M0 0 C1.32 0.99 2.64 1.98 4 3 C3.67 3.99 3.34 4.98 3 6 C1.68 5.67 0.36 5.34 -1 5 C-0.67 3.35 -0.34 1.7 0 0 Z " fill="#851831" transform="translate(470,71)"/>
<path d="M0 0 C0.66 0.99 1.32 1.98 2 3 C1.67 3.99 1.34 4.98 1 6 C-1.5625 7.1875 -1.5625 7.1875 -4 8 C-2.87548273 5.0280615 -1.77706209 2.66559313 0 0 Z " fill="#66556A" transform="translate(296,71)"/>
<path d="M0 0 C0.66 0 1.32 0 2 0 C1.67 1.98 1.34 3.96 1 6 C1.66 6 2.32 6 3 6 C3 7.32 3 8.64 3 10 C2.34 10 1.68 10 1 10 C-0.60725635 6.78548731 -0.05748185 3.56387464 0 0 Z " fill="#DA780B" transform="translate(605,43)"/>
<path d="M0 0 C2.64 0.99 5.28 1.98 8 3 C8 3.66 8 4.32 8 5 C3.545 4.01 3.545 4.01 -1 3 C-0.67 2.01 -0.34 1.02 0 0 Z " fill="#065E6E" transform="translate(136,36)"/>
<path d="M0 0 C2 4 2 4 2 6 C1.34 6 0.68 6 0 6 C0 6.66 0 7.32 0 8 C1.65 8 3.3 8 5 8 C5 8.33 5 8.66 5 9 C3.02 9 1.04 9 -1 9 C-0.67 6.03 -0.34 3.06 0 0 Z " fill="#80B1B4" transform="translate(26,136)"/>
<path d="M0 0 C0.99 0.33 1.98 0.66 3 1 C3 1.99 3 2.98 3 4 C4.32 4.33 5.64 4.66 7 5 C6.67 5.66 6.34 6.32 6 7 C3.00675737 5.9024777 2.15389099 5.32317108 0.75 2.375 C0.5025 1.59125 0.255 0.8075 0 0 Z " fill="#772B46" transform="translate(476,137)"/>
<path d="M0 0 C0.66 0 1.32 0 2 0 C2.125 5.75 2.125 5.75 1 8 C0.34 8 -0.32 8 -1 8 C-0.67 5.36 -0.34 2.72 0 0 Z " fill="#0E3C59" transform="translate(240,120)"/>
<path d="M0 0 C0.66 0.66 1.32 1.32 2 2 C1.625 4.125 1.625 4.125 1 6 C-0.32 5.34 -1.64 4.68 -3 4 C-3 3.34 -3 2.68 -3 2 C-2.01 1.34 -1.02 0.68 0 0 Z " fill="#801E33" transform="translate(471,121)"/>
<path d="M0 0 C0.99 0 1.98 0 3 0 C3 1.98 3 3.96 3 6 C2.01 6 1.02 6 0 6 C0 4.02 0 2.04 0 0 Z " fill="#08406D" transform="translate(153,99)"/>
<path d="M0 0 C0.99 0.33 1.98 0.66 3 1 C0.6875 3.5 0.6875 3.5 -2 6 C-2.99 6 -3.98 6 -5 6 C-5 5.34 -5 4.68 -5 4 C-4.0409375 3.8453125 -4.0409375 3.8453125 -3.0625 3.6875 C-2.381875 3.460625 -1.70125 3.23375 -1 3 C-0.67 2.01 -0.34 1.02 0 0 Z " fill="#6AABB7" transform="translate(134,91)"/>
<path d="M0 0 C0.99 0.33 1.98 0.66 3 1 C3 1.66 3 2.32 3 3 C3.66 3 4.32 3 5 3 C5.33 4.32 5.66 5.64 6 7 C5.01 7.495 5.01 7.495 4 8 C0 1.125 0 1.125 0 0 Z " fill="#944052" transform="translate(442,79)"/>
<path d="M0 0 C0.66 0 1.32 0 2 0 C1.67 1.98 1.34 3.96 1 6 C0.34 6 -0.32 6 -1 6 C-1.33 6.66 -1.66 7.32 -2 8 C-1.125 1.125 -1.125 1.125 0 0 Z " fill="#95112E" transform="translate(499,73)"/>
<path d="M0 0 C0.33 0 0.66 0 1 0 C0.67 3.63 0.34 7.26 0 11 C-0.33 11 -0.66 11 -1 11 C-1.22174933 9.54364629 -1.42698698 8.08477044 -1.625 6.625 C-1.74101563 5.81289062 -1.85703125 5.00078125 -1.9765625 4.1640625 C-1.98429688 3.44992188 -1.99203125 2.73578125 -2 2 C-1.34 1.34 -0.68 0.68 0 0 Z " fill="#E9BC79" transform="translate(669,67)"/>
<path d="M0 0 C0.99 0.33 1.98 0.66 3 1 C2.37240135 3.92879371 1.41377341 6.36095629 0 9 C-0.84454356 5.62182575 -1.10844919 3.32534757 0 0 Z " fill="#96384B" transform="translate(502,45)"/>
<path d="M0 0 C2.50037734 2.17424117 3.43628586 3.73045798 4 7 C2.35 6.01 0.7 5.02 -1 4 C-0.67 2.68 -0.34 1.36 0 0 Z " fill="#8F3D58" transform="translate(451,36)"/>
<path d="M0 0 C0.99 0 1.98 0 3 0 C2.625 1.9375 2.625 1.9375 2 4 C1.01 4.495 1.01 4.495 0 5 C-0.66 5.99 -1.32 6.98 -2 8 C-2.20086443 4.28400809 -2.1519437 3.22791555 0 0 Z " fill="#045680" transform="translate(171,34)"/>
<path d="M0 0 C0.66 0 1.32 0 2 0 C2 1.32 2 2.64 2 4 C3.32 4.33 4.64 4.66 6 5 C3.69 5 1.38 5 -1 5 C-0.67 3.35 -0.34 1.7 0 0 Z " fill="#0F3052" transform="translate(145,138)"/>
<path d="M0 0 C1.32 0.66 2.64 1.32 4 2 C3 4 3 4 -0.0625 5.125 C-1.031875 5.41375 -2.00125 5.7025 -3 6 C-1.125 1.125 -1.125 1.125 0 0 Z " fill="#5E4A5F" transform="translate(255,134)"/>
<path d="M0 0 C2.1387261 3.20808915 2.47730962 4.27698497 2 8 C1.01 8.66 0.02 9.32 -1 10 C-0.67 6.7 -0.34 3.4 0 0 Z " fill="#1C5B86" transform="translate(234,129)"/>
<path d="M0 0 C0.99 0.495 0.99 0.495 2 1 C2.73075648 3.3140622 3.40138258 5.64828869 4 8 C3.01 8 2.02 8 1 8 C0 2.25 0 2.25 0 0 Z " fill="#6A1626" transform="translate(466,115)"/>
<path d="M0 0 C0.66 0 1.32 0 2 0 C3.09658936 3.28976808 2.79953138 4.71303767 2 8 C1.34 8 0.68 8 0 8 C0 5.36 0 2.72 0 0 Z " fill="#A50A31" transform="translate(514,97)"/>
<path d="M0 0 C0.66 0 1.32 0 2 0 C2.33 2.64 2.66 5.28 3 8 C2.34 8 1.68 8 1 8 C0.67 5.36 0.34 2.72 0 0 Z " fill="#64586B" transform="translate(368,89)"/>
<path d="M0 0 C0.33 1.32 0.66 2.64 1 4 C1.66 4 2.32 4 3 4 C3 4.66 3 5.32 3 6 C1.02 6 -0.96 6 -3 6 C-1.125 1.125 -1.125 1.125 0 0 Z " fill="#6C596E" transform="translate(291,79)"/>
<path d="M0 0 C2.475 0.99 2.475 0.99 5 2 C4.67 2.99 4.34 3.98 4 5 C2.68 4.67 1.36 4.34 0 4 C0 2.68 0 1.36 0 0 Z " fill="#87102B" transform="translate(459,57)"/>
</svg>
