<?xml version="1.0" encoding="UTF-8"?>
<svg xmlns="http://www.w3.org/2000/svg" width="732" height="169">
  <g transform="translate(0,169) scale(0.1,-0.1)">
    <path d="M470 1273c-12-60-25-114-27-120-4-10 67-13 336-13 375 0 404-4 417-55 13-51-21-145-63-172-24-16-63-18-385-21-324-3-358-5-362-20-7-20-126-604-126-614 0-5 67-8 149-8l148 0 6 38c6 42 64 318 73 345 5 15 25 17 229 17 125 0 247 5 277 11 179 37 314 175 348 353 25 135-3 244-78 302-81 61-102 64-533 64l-386 0-23-107z" fill="#009B92"/>
    <path d="M1631 1178c-66-317-140-662-167-786-13-63-26-119-27-125-1-9 115-13 469-15l470-2 27 117c15 64 24 119 21 122-3 3-147 8-320 9-209 3-314 7-314 14 0 6 11 63 25 127 14 64 34 157 45 206 10 50 32 153 49 230 43 199 59 293 53 300-3 3-69 5-147 5l-141 0-43-202z" fill="#007EB8"/>
    <path d="M3047 1092c-431-655-547-834-547-840 0-11 334-5 338 6 4 12 185 307 245 398 25 38 83 132 130 209 100 162 106 170 119 157 6-6 27-104 49-218 51-277 105-544 111-550 3-2 77-3 165-2l160 3-38 165c-21 91-59 251-83 355-51 213-72 305-112 483l-28 122-160-1-161 0-188-287z" fill="#6A287E"/>
    <path d="M4165 1358c-2-13-14-63-25-113-11-49-49-229-85-400-36-171-79-372-96-448-17-76-29-140-27-142 8-8 280-7 288 2 4 4 17 55 29 113 56 265 110 538 113 565 2 17 7 30 12 30 10 0 99-146 286-472 74-128 140-235 147-237 14-6 303-10 306-4 1 1 26 120 55 263 29 143 71 341 92 440 22 99 49 224 60 277 10 53 22 108 26 122l6 26-151 0c-145 0-151-1-151-20 0-17-47-247-119-580-5-25-12-62-16-83-3-21-10-35-15-32-7 4-172 286-384 655l-32 55-157 3c-156 2-157 2-162-20z" fill="#C8252C"/>
    <path d="M5500 1178c-66-317-140-662-167-786-13-63-26-119-27-125-1-9 115-13 469-15l470-2 27 117c15 64 24 119 21 122-3 3-147 8-320 9-209 3-314 7-314 14 0 6 11 63 25 127 14 64 34 157 45 206 10 50 32 153 49 230 43 199 59 293 53 300-3 3-69 5-147 5l-141 0-43-202z" fill="#F9AD1B"/>
  </g>
</svg>