<?xml version="1.0" standalone="no"?>
<!DOCTYPE svg PUBLIC "-//W3C//DTD SVG 20010904//EN"
 "http://www.w3.org/TR/2001/REC-SVG-20010904/DTD/svg10.dtd">
<svg version="1.0" xmlns="http://www.w3.org/2000/svg"
 width="732.000000pt" height="169.000000pt" viewBox="0 0 732.000000 169.000000"
 preserveAspectRatio="xMidYMid meet">

<g transform="translate(0.000000,169.000000) scale(0.100000,-0.100000)"
fill="#000000" stroke="none">
<path d="M470 1273 c-12 -60 -25 -114 -27 -120 -4 -10 67 -13 336 -13 375 0
404 -4 417 -55 13 -51 -21 -145 -63 -172 -24 -16 -63 -18 -385 -21 -324 -3
-358 -5 -362 -20 -7 -20 -126 -604 -126 -614 0 -5 67 -8 149 -8 l148 0 6 38
c6 42 64 318 73 345 5 15 25 17 229 17 125 0 247 5 277 11 179 37 314 175 348
353 25 135 -3 244 -78 302 -81 61 -102 64 -533 64 l-386 0 -23 -107z"/>
<path d="M1631 1178 c-66 -317 -140 -662 -167 -786 -13 -63 -26 -119 -27 -125
-1 -9 115 -13 469 -15 l470 -2 27 117 c15 64 24 119 21 122 -3 3 -147 8 -320
9 -209 3 -314 7 -314 14 0 6 11 63 25 127 14 64 34 157 45 206 10 50 32 153
49 230 43 199 59 293 53 300 -3 3 -69 5 -147 5 l-141 0 -43 -202z"/>
<path d="M3047 1092 c-431 -655 -547 -834 -547 -840 0 -11 334 -5 338 6 4 12
185 307 245 398 25 38 83 132 130 209 100 162 106 170 119 157 6 -6 27 -104
49 -218 51 -277 105 -544 111 -550 3 -2 77 -3 165 -2 l160 3 -38 165 c-21 91
-59 251 -83 355 -51 213 -72 305 -112 483 l-28 122 -160 -1 -161 0 -188 -287z"/>
<path d="M4165 1358 c-2 -13 -14 -63 -25 -113 -11 -49 -49 -229 -85 -400 -36
-171 -79 -372 -96 -448 -17 -76 -29 -140 -27 -142 8 -8 280 -7 288 2 4 4 17
55 29 113 56 265 110 538 113 565 2 17 7 30 12 30 10 0 99 -146 286 -472 74
-128 140 -235 147 -237 14 -6 303 -10 306 -4 1 1 26 120 55 263 29 143 71 341
92 440 22 99 49 224 60 277 10 53 22 108 26 122 l6 26 -151 0 c-145 0 -151 -1
-151 -20 0 -17 -47 -247 -119 -580 -5 -25 -12 -62 -16 -83 -3 -21 -10 -35 -15
-32 -7 4 -172 286 -384 655 l-32 55 -157 3 c-156 2 -157 2 -162 -20z"/>
<path d="M7128 1353 c0 -16 -2 -39 -3 -53 -1 -14 -3 -47 -5 -75 -2 -27 -7 -55
-12 -62 -5 -7 -5 -14 2 -18 5 -3 10 -4 10 -2 0 4 25 153 35 210 3 19 0 27 -10
27 -9 0 -16 -11 -17 -27z"/>
<path d="M5896 1355 c4 -8 8 -15 10 -15 2 0 4 7 4 15 0 8 -4 15 -10 15 -5 0
-7 -7 -4 -15z"/>
<path d="M6043 1166 c3 -8 1 -17 -6 -19 -7 -2 20 -4 58 -4 39 0 52 2 28 4 -23
2 -47 11 -53 19 -16 18 -34 18 -27 0z"/>
<path d="M6691 1074 c0 -11 3 -14 6 -6 3 7 2 16 -1 19 -3 4 -6 -2 -5 -13z"/>
<path d="M6411 1054 c0 -11 3 -14 6 -6 3 7 2 16 -1 19 -3 4 -6 -2 -5 -13z"/>
<path d="M6682 1015 c0 -16 2 -22 5 -12 2 9 2 23 0 30 -3 6 -5 -1 -5 -18z"/>
<path d="M6671 954 c0 -11 3 -14 6 -6 3 7 2 16 -1 19 -3 4 -6 -2 -5 -13z"/>
<path d="M6381 914 c0 -11 3 -14 6 -6 3 7 2 16 -1 19 -3 4 -6 -2 -5 -13z"/>
<path d="M6652 875 c0 -16 2 -22 5 -12 2 9 2 23 0 30 -3 6 -5 -1 -5 -18z"/>
<path d="M6372 870 c0 -14 2 -19 5 -12 2 6 2 18 0 25 -3 6 -5 1 -5 -13z"/>
<path d="M6641 824 c0 -11 3 -14 6 -6 3 7 2 16 -1 19 -3 4 -6 -2 -5 -13z"/>
<path d="M6346 764 c-4 -20 -5 -38 -2 -41 2 -3 8 11 12 31 3 21 4 39 1 42 -2
3 -8 -11 -11 -32z"/>
<path d="M6632 780 c0 -14 2 -19 5 -12 2 6 2 18 0 25 -3 6 -5 1 -5 -13z"/>
<path d="M6617 743 c-4 -3 -7 -11 -7 -17 0 -6 5 -5 12 2 6 6 9 14 7 17 -3 3
-9 2 -12 -2z"/>
<path d="M6605 680 c-4 -12 -5 -24 -2 -27 3 -2 8 5 12 17 4 12 5 24 2 27 -3 2
-8 -5 -12 -17z"/>
<path d="M6330 679 c0 -5 5 -7 10 -4 6 3 10 8 10 11 0 2 -4 4 -10 4 -5 0 -10
-5 -10 -11z"/>
<path d="M6592 585 c0 -16 2 -22 5 -12 2 9 2 23 0 30 -3 6 -5 -1 -5 -18z"/>
<path d="M6301 554 c0 -11 3 -14 6 -6 3 7 2 16 -1 19 -3 4 -6 -2 -5 -13z"/>
<path d="M6576 529 c-2 -8 -9 -41 -16 -74 -22 -114 -32 -150 -41 -161 -13 -16
-245 -19 -254 -3 -6 8 -10 7 -16 -2 -5 -8 -9 -17 -9 -21 0 -5 68 -8 150 -8
149 0 150 0 150 23 1 12 11 74 24 137 13 63 22 117 20 119 -2 2 -5 -2 -8 -10z"/>
</g>
</svg>
